<?xml version="1.0" encoding="utf-8"?>
<!-- Generator: Adobe Illustrator 26.0.3, SVG Export Plug-In . SVG Version: 6.00 Build 0)  -->
<svg version="1.1" xmlns="http://www.w3.org/2000/svg" xmlns:xlink="http://www.w3.org/1999/xlink" x="0px" y="0px"
	 viewBox="0 0 792 612" style="enable-background:new 0 0 792 612;" xml:space="preserve">
<style type="text/css">
	.st0{fill:#FBB040;}
	.st1{fill:#754C29;}
	.st2{fill:#FFFFFF;}
	.st3{fill:#A97C50;}
	.st4{fill:none;stroke:#A97C50;stroke-width:4;stroke-miterlimit:10;}
	.st5{fill:#F7941D;}
</style>
<g id="Layer_1">
	<g>
		<g>
			<g>
				<path class="st0" d="M650.2,342c-8.7-5.5-5.9-18.8-1-27.9c4.8-9.1,4.9-20.3-0.8-28.9c-5.5-8.3-3.6-9.4-13.3-7.3
					c-5.4,1.2-10.9,2.7-15.6,5.7c-14.6,9.5-19.1,23.1-35.7,24.4c-8.9,0.7-16.8-6.6-32.6-8.9c-7.5-1.1-14.8-3-22.4-3.3
					c-16-0.5-33.7-0.5-46,9.7c-2.6,2.1-4.9,4.7-7.9,6c-3.1,1.3-6.7,1.2-10,0.9c-21.4-1.5-35.7,6.8-56.9-7.1
					c-5.5-3.6-17.9-12.3-24.6-12.5s-13.9,2.8-16.4,8.9c-2.3,5.6-0.2,11.9,1.5,17.7c4.3,15.1,1.1,30.7,1,46.4
					c-0.2,20.9-14.2,28.8-28.1,36.2c-8.8,4.7-19,6.7-27.3,12.3c-6.9,4.6-12.1,11.5-16.3,18.6c-6.7,11.3-11.3,24.7-8.7,37.5
					c3.4,16.3,11.6,27.9,24.8,38.1c11.4,8.9,28.8,17.9,42.4,22.7c13.6,4.8,29.7,4.8,41.4-3.6c5.5-3.9,9.6-9.4,13.7-14.8
					c9.4-12.4,10.1-25.9,19.5-38.3c4.2-5.6,26.2-24.3,25.1-27.2c-2.8-7.3-9.2-11.4-13.3-21.5c-3.8-9.2-1.2-18.7-3.7-28.3
					c-1.2-4.5,3.6-9.5,5.4-13.8c0.5-1.2,9.7-6.3,6.4-4.8c10-4.7,17.2-9.5,27.6-5.7c13.6,5,10.4,7.2,13.5,14.4
					c8.5,19.7-10.4,51.7-5.6,49c24.8-13.8,40.8-3.4,45.7-1c6.7,3.3-10.8-18.8,11.4-49.5c4.3-6,14.8-9.3,22.2-10.2
					c14.2-1.7,19.7,15.5,22.9,29.4c3.2,13.9-1.7,28.5-14.8,35.3c-8.4,4.3-17.3,5.5-3.2,15.6c1.8,1.3,5.6,4.3,13.5,10.6
					c0,0-7.6,16.7,4.4,37.5c11.7,20.3,56.7,40.8,80,43.4c9.8,1.1,32.6-7,40.7-12.6c10.5-7.3,13.9-11.2,23.2-20.8
					c14.3-14.7,13.9-47.7,5.7-66.5c-8.2-18.8-12.9-27.5-27.7-41.7c-10.7-10.2-19.2-15.9-32.3-22.1c-6.7-3.2-15.3-15.7-18.3-22.5
					c-3-6.8-14.5-15.7-9.4-21.1"/>
			</g>
			<g>
				<path class="st1" d="M479.3,416.4c-5.1-0.5-10.1,1.5-12.5,6.1c-2.4,4.6-1.5,6.5-1.9,11.6c2.7,6.3,12.4,8.9,17.3,4.1
					c0,0,6.8-3.5,5.3-12.2C486.1,417.2,479.3,416.4,479.3,416.4z"/>
			</g>
			<g>
				<path class="st1" d="M545.7,414.5c-5.1-0.5-10.1,1.5-12.5,6.1c-2.4,4.6-1.5,6.5-1.9,11.6c2.7,6.3,12.4,8.9,17.3,4.1
					c0,0,6.8-3.5,5.3-12.2C552.5,415.4,545.7,414.5,545.7,414.5z"/>
			</g>
			<g>
				<path class="st0" d="M439.6,557c-6.7-5.9-16.6-5.6-25.5-5c-11.2,0.8-22.3,1.5-33.4,3.1c-7,1-14.1,2.5-19.8,6.6
					c-5.7,4.2-9.4,11.7-7.1,18.4c1.6,4.6,5.8,8,10.3,9.8c7.6,3.1,16.7,2.5,23.8-1.6c1.9-1.1,3.8-2.5,6-2.8c4.9-0.7,9.2,3.9,14.1,3.7
					c6.9-0.3,11.2-9.7,18.1-9.1c1.8,0.2,3.5,1.1,5.3,1.2c5.4,0.4,9-5.8,9.3-11.2c0.2-5.4-1.4-11-0.1-16.2"/>
			</g>
			<g>
				<path class="st0" d="M640.3,564.1c-2.9-5.8-9.9-8.1-16.3-9.5c-8.3-1.7-16.8-2.7-25.3-2.9c-3-0.1-6-0.1-8.9-0.5
					c-3.7-0.6-7.3-2-11-2.8c-4.4-0.9-9.1-0.8-13.4,0.3c-5.5,1.3-10.8,4.3-13.5,9.3c-2.7,4.9-2,11.9,2.5,15.2c1.7,1.3,3.8,2,5.8,2.6
					c10.3,3.4,21.4,6.8,31.9,4c2.9-0.8,5.8-2,8.8-2.3c4.9-0.4,9.7,1.8,14.6,2.6c9.6,1.5,20-3.1,25.2-11.4"/>
			</g>
		</g>
		<circle class="st2" cx="480.4" cy="423.4" r="3.2"/>
		<circle class="st2" cx="542.7" cy="421.7" r="3.2"/>
		<polygon class="st2" points="396.9,326.5 381.2,321.8 381.2,342.8 		"/>
		<polygon class="st2" points="628.1,308.8 613.6,316.4 628.2,331.4 		"/>
		<g>
			<g>
				<g>
					<path class="st3" d="M361.7,360.5c0.6,2.5,1.2,5,1.7,7.5c0.1,0.6,0.2,1.3,0.3,1.9c0,0.3,0.1,0.6,0.1,0.9c0-0.2-0.1-1,0,0
						c0.1,1.3,0.3,2.6,0.3,3.9c0,1.2,0,2.4-0.1,3.6c0,0.3-0.1,0.6-0.1,0.8c-0.1,0.8,0.2-0.8,0-0.1c-0.2,0.7-0.3,1.4-0.4,2.1
						c-0.2,0.6-0.3,1.2-0.6,1.8c-0.1,0.3-0.2,0.5-0.3,0.8c0.1-0.2,0.4-0.9,0,0c-0.5,1.1-1.1,2.1-1.8,3.1c-0.1,0.2-0.3,0.4-0.5,0.6
						c0.6-0.8,0.2-0.3,0.1-0.1c-0.3,0.4-0.7,0.8-1,1.2c-0.9,0.9-1.8,1.8-2.7,2.6c-0.2,0.2-0.4,0.3-0.6,0.5c-0.6,0.5,0.7-0.5,0.1-0.1
						c-0.5,0.3-1,0.7-1.5,1c-1,0.7-2,1.3-3.1,1.9c-2.1,1.2-4.3,2.2-6.5,3.2c1-0.4-0.8,0.3-1,0.4c-0.5,0.2-1.1,0.4-1.6,0.6
						c-1.3,0.5-2.6,0.9-3.9,1.4c-9.8,3.3-19.9,5.8-29.3,10.2c-7.8,3.7-14.9,9-20.5,15.5c-11.3,13.1-17.7,30.3-17.6,47.7
						c0.1,9.5,2.2,18.8,6.2,27.4c2.2,4.7,5.2,9.1,8.8,12.9c3.6,3.8,7.8,7,12.1,9.9c9,6.1,18.2,12.1,28.3,16.2
						c9.9,4.1,20.5,6.2,31.1,7.8c2.6,0.4,5.2,0.8,7.7,1.2c1.4,0.2,2.6,0.2,3.9-0.5c1-0.6,2-1.8,2.3-3c0.5-2.4-0.7-5.7-3.5-6.2
						c-10.4-1.5-20.9-3.1-31-6.2c-2.6-0.8-5-1.7-7.5-2.7c-0.7-0.3,0.7,0.3-0.1,0c-0.3-0.1-0.6-0.2-0.8-0.4c-0.6-0.3-1.3-0.6-1.9-0.9
						c-1.2-0.6-2.4-1.2-3.5-1.8c-4.7-2.5-9.2-5.4-13.7-8.2c-2.1-1.4-4.2-2.7-6.3-4.1c-1-0.7-2-1.4-3-2.1c-0.5-0.3-0.9-0.7-1.4-1
						c0.2,0.1,0.7,0.6,0,0c-0.3-0.2-0.6-0.4-0.8-0.7c-1.9-1.6-3.8-3.3-5.4-5.1c-0.4-0.4-0.8-0.9-1.1-1.3c-0.2-0.2-1.1-1.5-0.5-0.6
						c-0.7-1-1.5-2.1-2.1-3.1c-0.6-1-1.2-2.1-1.8-3.1c-0.3-0.5-0.5-1-0.8-1.5c-0.1-0.3-0.2-0.5-0.4-0.8c-0.1-0.1-0.6-1.3-0.3-0.8
						c0.3,0.6-0.1-0.2-0.2-0.4c-0.1-0.3-0.2-0.5-0.3-0.8c-0.2-0.5-0.4-1.1-0.6-1.6c-0.4-1.2-0.8-2.4-1.1-3.6
						c-0.6-2.1-1.1-4.2-1.4-6.4c-0.1-0.5-0.1-0.9-0.2-1.4c-0.1-0.9,0,0.2,0,0.3c0-0.2-0.1-0.5-0.1-0.7c-0.1-1-0.2-2.1-0.3-3.1
						c-0.3-4-0.1-8.1,0.4-12.1c0-0.2,0.2-1,0-0.2c-0.1,0.9,0-0.3,0.1-0.4c0.1-0.5,0.1-0.9,0.2-1.4c0.2-1,0.4-2.1,0.6-3.1
						c0.4-1.9,0.9-3.9,1.5-5.8c0.6-1.8,1.1-3.9,2-5.6c-0.7,1.2,0.1-0.3,0.3-0.6c0.2-0.4,0.4-0.9,0.6-1.3c0.4-0.9,0.9-1.9,1.4-2.8
						c1-1.8,2-3.6,3.1-5.3c0.5-0.8,1-1.5,1.6-2.3c0.3-0.4,0.6-0.7,0.8-1.1c0.5-0.7-0.1,0.1-0.1,0.2c0.2-0.3,0.4-0.6,0.7-0.8
						c2.5-3.1,5.3-6,8.4-8.5c0.4-0.3,0.8-0.7,1.2-1c-0.1,0.1-0.9,0.7-0.2,0.1c0.2-0.1,0.4-0.3,0.6-0.4c0.8-0.6,1.7-1.2,2.6-1.8
						c1.8-1.2,3.6-2.2,5.5-3.2c1-0.5,2.1-1,3.1-1.5c0,0,1.3-0.6,0.6-0.3c-0.6,0.2,0.3-0.1,0.4-0.2c0.6-0.2,1.2-0.5,1.8-0.7
						c2.4-0.9,4.8-1.7,7.2-2.5c4.8-1.5,9.6-2.9,14.3-4.5c9.4-3.1,19.5-7.1,26.4-14.6c3.6-3.9,6.2-8.6,7.1-13.9
						c0.9-5.6,0.4-11.1-0.6-16.6c-0.5-2.4-1-4.8-1.6-7.3c-0.6-2.5-3.6-4.3-6.2-3.5C362.5,355.2,361,357.8,361.7,360.5L361.7,360.5z"
						/>
				</g>
			</g>
			<g>
				<g>
					<path class="st3" d="M381.5,353.7c-0.3-0.3-0.5-0.6-0.8-0.9c-0.2-0.2-0.3-0.4-0.5-0.6c0,0,0.5,0.7,0.2,0.2
						c-0.5-0.7-1-1.4-1.5-2.1c-1-1.5-1.9-3.1-2.8-4.7c-0.4-0.7-0.7-1.4-1.1-2.2c-0.2-0.4-0.4-0.9-0.6-1.3c0.4,0.9-0.1-0.1-0.2-0.5
						c-0.6-1.6-1.2-3.3-1.7-5c-1-3.5-1.8-7-2.3-10.6c-0.1-0.4-0.2-1.2,0-0.3c-0.1-0.5-0.1-1-0.2-1.4c-0.1-0.9-0.2-1.8-0.3-2.7
						c-0.2-1.8-0.3-3.7-0.3-5.5c0-1.6,0-3.2,0.1-4.7c0-0.4,0.1-0.7,0.1-1.1c0.1-1.2-0.1,0.6,0-0.3c0.1-0.8,0.3-1.5,0.5-2.3
						c0.1-0.4,0.2-0.8,0.3-1.2c0.1-0.2,0.4-0.8,0.4-1c0,0-0.4,0.9-0.2,0.4c0.1-0.2,0.1-0.3,0.2-0.5c0.2-0.4,0.4-0.8,0.7-1.2
						c0.1-0.2,0.5-0.6,0.6-0.9c0,0-0.6,0.7-0.2,0.3c0.1-0.1,0.2-0.3,0.3-0.4c0.2-0.3,0.5-0.5,0.7-0.7c0.7-0.7-0.2,0.1-0.2,0.1
						c0-0.1,0.5-0.4,0.6-0.4c0.3-0.2,0.7-0.4,1-0.6c0.8-0.5-0.7,0.2,0.2-0.1c0.2-0.1,2.6-0.7,2.6-0.7c0,0-1,0.1-0.4,0.1
						c0.2,0,0.4,0,0.6,0c0.4,0,0.9,0,1.3,0c0.4,0,0.8,0,1.2,0.1c0,0,0.6,0,0.6,0.1c0,0-1-0.2-0.2,0c0.8,0.2,1.7,0.3,2.5,0.6
						c0.4,0.1,0.8,0.3,1.3,0.4c0.3,0.1,0.5,0.2,0.8,0.3c0.7,0.3-0.7-0.3,0,0c1.7,0.9,3.4,1.7,5.1,2.7c8.3,5.1,16.3,10.6,24.4,15.9
						c2.2,1.4,5.6,0.5,6.8-1.8c1.3-2.5,0.5-5.3-1.8-6.8c-7.8-5.1-15.6-10.3-23.5-15.3c-7.2-4.5-16.2-8.3-24.7-4.8
						c-4,1.7-7.4,4.6-9.2,8.6c-1.7,3.8-2.4,7.7-2.6,11.8c-0.3,7.9,0.8,16,2.7,23.6c2.3,9,6.3,17.4,12.3,24.5c1.7,2,5.3,1.9,7.1,0
						C383.5,358.6,383.3,355.8,381.5,353.7L381.5,353.7z"/>
				</g>
			</g>
			<g>
				<g>
					<path class="st3" d="M407.2,323.3c-3.8-1.9-7.5-3.9-11.3-5.8c-4-2.1-8.6-5.3-13.2-3.5c-4.9,1.9-7,6.5-7.3,11.5
						c-0.3,4-0.1,8.1,0.2,12c0.3,4.9,1,9.8,2.4,14.4c1.1,3.5,5.7,5,8.4,2.2c4.2-4.3,7.1-9.5,10.6-14.3c0.2-0.2,0.3-0.4,0.5-0.6
						c0.8-1-0.4,0.5,0.1-0.1c0.4-0.5,0.8-1,1.3-1.5c0.8-0.9,1.7-1.8,2.6-2.7c0.2-0.2,0.5-0.4,0.7-0.6c0.4-0.3,0.6-0.4,0.1-0.1
						c0.5-0.4,1.1-0.7,1.6-1.1c0.5-0.3,1-0.5,1.5-0.8c0.5-0.3-0.8,0.3,0.1,0c0.4-0.1,0.7-0.3,1.1-0.4c2.5-0.8,4.3-3.5,3.5-6.2
						c-0.8-2.5-3.5-4.3-6.2-3.5c-6.2,1.9-10.8,6.3-14.6,11.3c-1.7,2.3-3.3,4.7-4.9,7c-0.9,1.3-1.7,2.5-2.6,3.7
						c-0.5,0.6,0.7-0.9-0.2,0.2c-0.2,0.3-0.5,0.6-0.7,0.8c-0.5,0.6-1.1,1.2-1.6,1.8c2.8,0.7,5.6,1.5,8.4,2.2
						c-0.7-2.2-1.2-4.5-1.6-6.8c0-0.2-0.2-1.6-0.1-0.5c-0.1-0.6-0.1-1.2-0.2-1.9c-0.1-1.1-0.2-2.2-0.2-3.3c-0.1-2.2-0.2-4.4-0.2-6.6
						c0-1.1,0-2.1,0-3.2c0-0.6,0-1.2,0.1-1.8c0.1-0.6,0.1-0.6,0,0c0-0.2,0.1-0.4,0.1-0.6c0-0.2,0.1-0.4,0.2-0.6
						c0.2-0.6,0.2-0.5-0.1,0.1c0.1-0.2,0.2-0.4,0.4-0.6c-0.4,0.5-0.5,0.6-0.1,0.1c0.2-0.2,1.1-0.9,0.1-0.1c0.5-0.3,0.4-0.2-0.2,0
						c0.5-0.1,0.4-0.2-0.3,0c1,0-0.8-0.4,0.3,0c0.5,0.2,0.6,0.2,0,0c0.3,0.1,0.5,0.3,0.8,0.4c1,0.5,2,1,3,1.6
						c4.2,2.2,8.4,4.3,12.6,6.5c2.3,1.2,5.5,0.7,6.8-1.8C410.2,327.8,409.7,324.6,407.2,323.3L407.2,323.3z"/>
				</g>
			</g>
			<g>
				<g>
					<path class="st3" d="M429,317.9c15.7,1.2,31.3,2.3,47,3.5c2.5,0.2,4.6-2,4.9-4.3c0.3-2.6-1.2-4.6-3.6-5.5
						c-0.2-0.1-0.5-0.2-0.7-0.3c-0.5-0.2-0.4-0.2,0.2,0.1c-0.2-0.2-0.7-0.3-1-0.4c-0.7-0.4-1.5-0.8-2.2-1.2c-0.7-0.4-1.4-0.9-2-1.4
						c-1-0.7,0.8,0.7-0.1-0.1c-0.4-0.3-0.7-0.6-1.1-0.9c-1.1-1-2.2-2.1-3.2-3.2c-0.5-0.6-1.2-1.2-1.6-1.9c0.7,1.1,0,0-0.2-0.3
						c-0.3-0.3-0.5-0.7-0.7-1c-3.9-5.5-6.7-11.7-9.4-17.9c-2.9,1.7-5.8,3.4-8.6,5c7.7,11,19.9,17.9,33.3,18.6
						c4.5,0.2,6.4-5.6,3.5-8.5c-0.4-0.4-0.7-0.7-1-1.1c-0.2-0.2-0.3-0.4-0.5-0.6c-0.8-0.9,0.4,0.5,0-0.1c-0.6-0.8-1.2-1.7-1.7-2.6
						c-0.3-0.5-0.6-1-0.8-1.5c-0.1-0.2-0.2-0.5-0.3-0.7c-0.3-0.6-0.2-0.1,0,0.1c-0.6-0.7-0.8-2.3-1.1-3.1c-0.3-1-0.4-2-0.7-3
						c-0.1-0.7,0.1,0.9,0,0.2c0-0.3-0.1-0.5-0.1-0.8c-0.1-0.6-0.1-1.2-0.1-1.7c0-1,0-2.1,0.1-3.1c0-0.2,0.1-1.3,0-0.5
						c-0.1,0.7,0-0.2,0.1-0.3c0.1-0.6,0.2-1.1,0.3-1.7c-3,0.4-6.1,0.8-9.1,1.2c6.1,13,18.9,22.8,33,25.2c2.1,0.4,4.5-0.2,5.6-2.3
						c1.1-2.1,0.7-4.2-0.8-6.1c0.7,0.9,0,0-0.1-0.2c-0.2-0.3-0.4-0.6-0.6-1c-0.4-0.6-0.9-1.4-1.1-2.1c0.3,1.2,0,0-0.1-0.2
						c-0.1-0.4-0.2-0.7-0.4-1.1c-0.2-0.8-0.4-1.6-0.6-2.5c-0.1-0.4,0-0.3,0,0.4c0-0.2,0-0.4-0.1-0.6c0-0.4-0.1-0.8-0.1-1.2
						c0-0.8,0-1.6,0.1-2.3c0-0.2,0-0.4,0.1-0.6c-0.1,0.6-0.1,0.7,0,0.4c0.1-0.4,0.1-0.8,0.2-1.1c0.2-0.8,0.4-1.6,0.7-2.4
						c-3.2,0-6.4,0-9.6,0c2.3,12.8,15.1,21,27,23.3c7.5,1.5,15.2,1.4,22.8,1.6c3.5,0.1,7.1,0.1,10.5,0.7c-1.4-0.2,0.5,0.1,0.9,0.2
						c0.7,0.1,1.5,0.3,2.2,0.4c1.5,0.3,2.9,0.7,4.3,1.1c0.8,0.3,1.6,0.5,2.4,0.9c0.2,0.1,1.4,0.5,0.2,0.1c0.3,0.1,0.7,0.3,1,0.4
						c1.4,0.7,2.8,1.4,4.1,2.3c0.3,0.2,0.6,0.4,0.9,0.6c0.4,0.3,0.4,0.3-0.2-0.1c0.2,0.1,0.4,0.3,0.6,0.4c0.5,0.5,1.1,0.9,1.6,1.4
						c0.5,0.5,1.4,1.2,1.7,1.8c-0.1-0.1-0.2-0.3-0.3-0.4c0.1,0.2,0.3,0.4,0.4,0.6c0.3,0.4,0.5,0.8,0.8,1.2c1.4,2.2,4.5,3.3,6.8,1.8
						c2.2-1.4,3.3-4.5,1.8-6.8c-7-11.2-20.2-15.2-32.7-16.2c-7.3-0.6-14.6-0.2-21.8-0.8c-0.9-0.1-1.9-0.2-2.8-0.3
						c1.1,0.1-0.4-0.1-0.5-0.1c-0.3,0-0.6-0.1-0.9-0.2c-1.7-0.3-3.3-0.7-4.9-1.2c-0.6-0.2-1.3-0.4-1.9-0.6c-0.3-0.1-0.7-0.3-1-0.4
						c-1.2-0.4,1,0.5-0.2-0.1c-1.3-0.6-2.6-1.3-3.9-2c-0.6-0.4-1.2-0.8-1.8-1.2c-0.2-0.1-1.2-0.8-0.1-0.1c-0.4-0.3-0.8-0.6-1.1-0.9
						c-1.1-0.9-2.5-2.1-3.2-3.3c0.1,0.1,0.6,0.9,0.1,0.2c-0.3-0.4-0.5-0.8-0.8-1.2c-0.4-0.6-0.8-1.3-1.1-2c-0.2-0.5-0.6-0.6,0,0.1
						c-0.2-0.3-0.4-1-0.5-1.3c-0.2-0.8-0.4-1.6-0.6-2.4c-0.4-2.1-2.8-3.8-4.8-3.7c-2.3,0.1-4,1.5-4.8,3.7c-3,8.3-0.9,17.5,4.4,24.3
						c1.6-2.8,3.2-5.6,4.9-8.4c-1.6-0.3-3.1-0.6-4.7-1.1c-0.8-0.2-1.5-0.5-2.3-0.8c-0.4-0.1-0.8-0.3-1.2-0.5c-1-0.4,0.9,0.4-0.2-0.1
						c-2.9-1.3-5.6-2.9-8.1-4.8c-0.3-0.2-0.2-0.1,0.3,0.2c-0.1-0.1-0.3-0.2-0.4-0.3c-0.3-0.3-0.7-0.5-1-0.8c-0.6-0.5-1.1-1-1.6-1.5
						c-1.2-1.1-2.2-2.3-3.3-3.5c-0.1-0.2-1-1.1-0.1-0.1c-0.2-0.3-0.4-0.6-0.7-0.9c-0.5-0.7-1-1.4-1.4-2.2c-0.9-1.4-1.6-2.8-2.3-4.2
						c-0.8-1.8-3.2-2.6-5-2.4c-1.9,0.3-3.7,1.7-4.2,3.6c-2.5,10.7,0.6,22.2,8.3,30.1c1.2-2.8,2.4-5.7,3.5-8.5
						c-0.7,0-1.4-0.1-2.1-0.2c-1.1-0.1-0.1,0.1,0,0c0,0-1.1-0.2-1.1-0.2c-1.3-0.2-2.5-0.5-3.8-0.9c-1.3-0.4-2.9-0.7-4-1.4
						c0.5,0.3,0.5,0.2,0,0c-0.3-0.1-0.6-0.3-0.9-0.4c-0.6-0.3-1.3-0.6-1.9-1c-1.2-0.7-2.3-1.4-3.4-2.1c-0.3-0.2-0.5-0.4-0.8-0.6
						c-0.5-0.4-0.6-0.2-0.1,0c-0.5-0.2-1.2-1-1.6-1.4c-1-0.9-2-1.8-2.9-2.9c-0.4-0.5-0.8-1-1.3-1.5c-0.8-1,0.6,0.8-0.2-0.2
						c-0.2-0.3-0.5-0.6-0.7-0.9c-1.5-2.1-4.4-3.3-6.8-1.8c-2.5,1.6-2.9,4.3-1.8,6.8c5.9,13.5,13.4,27.7,28,33
						c0.4-3.3,0.9-6.5,1.3-9.8c-15.7-1.2-31.3-2.3-47-3.5c-2.6-0.2-5.1,2.4-5,5C424.1,315.8,426.2,317.7,429,317.9L429,317.9z"/>
				</g>
			</g>
			<g>
				<g>
					<path class="st3" d="M594.5,315.5c0.2-0.3,0.8-1,0.2-0.3c0.3-0.4,0.6-0.8,0.9-1.1c0.6-0.8,1.3-1.5,1.9-2.2
						c1.3-1.4,2.6-2.8,3.9-4.1c1.3-1.3,2.7-2.5,4.1-3.6c0.7-0.6,1.4-1.2,2.1-1.7c0.4-0.3,0.8-0.6,1.2-0.9c-0.7,0.6,0.2-0.2,0.5-0.4
						c6-4.5,12.4-8.8,18.9-12.7c0.8-0.5,1.6-1,2.5-1.4c0.3-0.1,1.5-0.6,0.6-0.3c0.5-0.2,0.9-0.3,1.4-0.5c0.5-0.1,1-0.3,1.4-0.4
						c0.9-0.2-0.6,0,0.4,0c0.5,0,0.9,0,1.4,0c0.6,0-0.4,0-0.4-0.1c0.1,0.1,0.6,0.1,0.7,0.1c0.4,0.1,0.8,0.2,1.2,0.3
						c0,0,0.5,0.2,0.5,0.2c0,0-0.9-0.4-0.3-0.1c0.8,0.4,1.5,0.9,2.3,1.3c0.5,0.3-0.3-0.2-0.3-0.2c0.1,0,0.3,0.3,0.4,0.4
						c0.3,0.3,0.7,0.6,1,0.9c0.3,0.3,0.5,0.5,0.8,0.8c0.1,0.1,0.2,0.3,0.4,0.4c0.4,0.5-0.5-0.7,0,0c0.5,0.8,1,1.5,1.4,2.3
						c0.1,0.2,0.2,0.4,0.3,0.6c0,0.1,0.3,0.7,0.1,0.2c-0.2-0.5,0,0.1,0.1,0.2c0.1,0.3,0.2,0.5,0.3,0.8c0.6,1.8,1.1,3.7,1.4,5.7
						c0,0.2,0.1,0.4,0.1,0.6c-0.2-1,0-0.3,0,0c0,0.4,0.1,0.9,0.1,1.3c0.1,1,0.2,2.1,0.2,3.1c0.1,2,0.1,4.1,0.1,6.1
						c-0.1,2.3-0.3,4.5-0.5,6.8c-0.1,0.6,0-0.1,0-0.2c0,0.3-0.1,0.6-0.1,0.9c-0.1,0.6-0.2,1.2-0.3,1.8c-0.2,1.1-0.4,2.2-0.7,3.3
						c-0.5,2.2-1.1,4.4-1.8,6.6c-0.3,1.1-0.7,2.2-1.1,3.2c-0.2,0.6-0.4,1.1-0.7,1.7c-0.1,0.2-0.2,0.4-0.3,0.6
						c-0.3,0.8,0.5-1.1-0.1,0.3c-1,2.4-0.8,5.5,1.8,6.8c2.2,1.1,5.7,0.8,6.8-1.8c3.8-8.7,6.1-17.8,6.8-27.3
						c0.3-4.3,0.2-8.7-0.3-13.1c-0.5-4.8-1.5-9.4-3.8-13.7c-4.3-8.2-13.9-13.3-23-10c-4.2,1.6-7.9,4.1-11.6,6.5
						c-3.4,2.2-6.9,4.5-10.2,6.9c-8,5.8-15.4,12.2-21.3,20.2c-1.6,2.1-0.4,5.7,1.8,6.8C590.2,318.6,592.8,317.7,594.5,315.5
						L594.5,315.5z"/>
				</g>
			</g>
			<g>
				<g>
					<path class="st3" d="M647.5,348.4c1.7,11.8,11.2,20.9,21,26.9c5.4,3.3,11.3,5.9,16.9,8.9c2.8,1.5,5.6,3,8.3,4.8
						c1.3,0.8,2.5,1.7,3.8,2.6c0.3,0.2,0.6,0.5,0.9,0.7c0.2,0.1,1,0.7,0.3,0.2c0.7,0.6,1.4,1.1,2.2,1.7c4.7,3.8,9.1,7.9,13.2,12.3
						c2,2.1,4,4.3,5.9,6.6c0.9,1.1,1.8,2.2,2.6,3.3c0.6,0.7,0.1,0.1,0,0c0.3,0.3,0.5,0.7,0.8,1c0.5,0.7,1,1.3,1.5,2
						c3.4,4.8,6.5,9.8,9.1,15c0.6,1.3,1.2,2.5,1.8,3.8c0.1,0.3,0.2,0.5,0.3,0.8c0.6,1.3-0.4-0.9,0.2,0.4c0.3,0.8,0.7,1.6,1,2.5
						c1.1,2.8,2,5.7,2.8,8.7c0.8,3,1.4,6.1,1.9,9.1c0.1,0.4,0.1,0.7,0.2,1.1c-0.1-1,0-0.1,0,0.2c0.1,0.7,0.2,1.5,0.2,2.2
						c0.2,1.6,0.3,3.2,0.3,4.9c0.1,3,0,6-0.2,9.1c-0.1,0.8-0.2,1.6-0.2,2.4c0,0.3-0.2,1.3,0,0.2c-0.1,0.4-0.1,0.7-0.2,1.1
						c-0.2,1.5-0.5,3-0.9,4.6c-0.6,2.7-1.4,5.3-2.3,7.9c-0.2,0.6-0.4,1.2-0.7,1.7c-0.1,0.3-0.3,0.7-0.4,1c-0.3,0.8,0,0,0.1-0.2
						c-0.5,1.3-1.1,2.5-1.7,3.7c-1.2,2.3-2.4,4.6-3.8,6.8c-0.7,1-1.4,2.1-2.1,3.1c-0.4,0.5-0.7,1-1.1,1.5c-0.2,0.3-0.4,0.6-0.7,0.9
						c0.8-1,0,0-0.1,0.2c-3.3,4.1-6.9,7.9-10.9,11.3c-0.9,0.7-1.9,1.9-2.9,2.4c1-0.5,0.1-0.1-0.2,0.1c-0.2,0.2-0.4,0.3-0.6,0.5
						c-0.6,0.4-1.2,0.9-1.8,1.3c-2.2,1.5-4.4,2.9-6.7,4.2c-2.3,1.3-4.6,2.5-7,3.6c-0.6,0.3-1.1,0.5-1.7,0.8
						c-1.3,0.6,0.6-0.2-0.2,0.1c-0.3,0.1-0.7,0.3-1,0.4c-1.5,0.6-3,1.2-4.6,1.7c-5.9,2-11.9,3.4-18.1,4.3c-1,0.1-0.2,0,0,0
						c-0.4,0.1-0.9,0.1-1.3,0.2c-0.7,0.1-1.5,0.2-2.2,0.2c-1.6,0.2-3.2,0.3-4.9,0.4c-3.1,0.2-6.2,0.2-9.3,0.2
						c-3.1-0.1-6.2-0.3-9.3-0.6c-1.5-0.1-3-0.3-4.4-0.5c0.2,0,1,0.1,0,0c-0.4-0.1-0.9-0.1-1.3-0.2c-0.9-0.1-1.8-0.3-2.6-0.4
						c-6.3-1.1-12.5-2.9-18.8-4.3c-3.5-0.8-7.1-1.4-10.7-1.8c-3.2-0.3-6.4-0.3-9.6-0.5c-0.8,0-1.5-0.1-2.3-0.1
						c-0.5,0-0.9-0.1-1.4-0.1c0,0-1.5-0.2-0.7-0.1c0.7,0.1-0.8-0.1-0.7-0.1c-0.4-0.1-0.8-0.1-1.1-0.2c-0.8-0.2-1.7-0.4-2.5-0.6
						c-2.5-0.7-5.6,0.9-6.2,3.5c-0.6,2.7,0.8,5.4,3.5,6.2c6.7,2,13.8,1.5,20.7,2.1c0.5,0,0.9,0.1,1.4,0.2c0.2,0,1,0.1,0.1,0
						c0.8,0.1,1.6,0.2,2.3,0.4c1.7,0.3,3.4,0.7,5.1,1.1c3.4,0.8,6.8,1.7,10.2,2.5c12.6,3,25.6,4.3,38.5,3.5
						c24.2-1.5,47.7-10.7,64.9-28.2c7.8-8,14-17.5,18-28c4.5-11.6,5.7-24.5,4.1-36.8c-1.6-13-5.9-25.4-12.4-36.7
						c-6-10.5-13.9-20.1-22.6-28.5c-4.8-4.6-9.8-8.9-15.2-12.8c-5.3-3.8-11.1-6.8-17-9.7c-5.5-2.7-11-5.6-16-9.2
						c-1.1-0.8,0.8,0.7-0.2-0.2c-0.3-0.2-0.5-0.4-0.8-0.6c-0.5-0.5-1.1-0.9-1.6-1.4c-1-1-2.1-2-3-3c-0.4-0.5-0.8-1-1.2-1.5
						c-0.6-0.7,0,0,0.1,0.1c-0.3-0.3-0.5-0.6-0.7-0.9c-0.8-1.1-1.5-2.3-2.2-3.6c-0.2-0.3-0.3-0.7-0.5-1c-0.1-0.2-0.4-0.8,0.1,0.2
						c-0.3-0.6-0.5-1.2-0.6-1.8c-0.4-1.3-0.7-2.7-0.9-4.1c-0.4-2.6-3.8-4.3-6.2-3.5C648.1,343.2,647,345.6,647.5,348.4L647.5,348.4z
						"/>
				</g>
			</g>
			<g>
				<g>
					<path class="st3" d="M404.1,445.2c1.3,2.4,3,4.4,4.4,6.7c1.4,2.2,2.6,4.4,3.7,6.7c0.1,0.3,0.3,0.6,0.4,1c0.1,0.2,0.4,0.9,0,0
						c0.2,0.5,0.4,1.1,0.6,1.6c0.5,1.3,1,2.7,1.4,4c0.7,2.5,1.3,5,1.7,7.5c0,0.3,0.1,0.6,0.1,0.8c-0.2-1,0-0.3,0-0.1
						c0.1,0.7,0.2,1.4,0.2,2.1c0.1,1.3,0.2,2.6,0.2,3.8c0,2.6-0.1,5.2-0.4,7.8c-0.1,0.8,0.1-0.8,0-0.1c-0.1,0.3-0.1,0.7-0.2,1
						c-0.1,0.5-0.2,1.1-0.3,1.6c-0.3,1.3-0.5,2.6-0.9,3.9c-0.7,2.5-1.5,4.9-2.5,7.3c0.1-0.2,0.4-0.9,0,0c-0.2,0.4-0.3,0.8-0.5,1.1
						c-0.3,0.6-0.6,1.3-0.9,1.9c-0.6,1.2-1.3,2.5-2,3.6c-0.7,1.2-1.5,2.4-2.3,3.5c-0.2,0.3-0.4,0.6-0.6,0.8
						c-0.1,0.1-0.9,1.2-0.5,0.7c0.4-0.5-0.2,0.2-0.3,0.3c-0.3,0.4-0.6,0.8-0.9,1.1c-1.7,2-2.1,5.1,0,7.1c1.9,1.7,5.3,2.1,7.1,0
						c7.2-8.7,12.3-19.1,14.2-30.3c1.8-11.3,0.8-23-3.6-33.7c-1.3-3.1-2.7-6.1-4.4-9c-1.6-2.7-3.7-5.2-5.2-8
						c-1.2-2.3-4.6-3.2-6.8-1.8C403.5,439.9,402.8,442.7,404.1,445.2L404.1,445.2z"/>
				</g>
			</g>
			<g>
				<g>
					<path class="st3" d="M601.1,437.9c-6.5,2.6-12,6.7-16.2,12.4c-4.1,5.7-6.1,12.9-7.1,19.7c-2,14,0.3,28.6,8.2,40.5
						c4.1,6.2,9.4,11.5,15.8,15.3c2.2,1.4,5.6,0.6,6.8-1.8c1.3-2.4,0.6-5.4-1.8-6.8c-1.2-0.7-2.3-1.5-3.4-2.3
						c-0.6-0.5,0.9,0.8-0.1-0.1c-0.3-0.2-0.5-0.4-0.8-0.6c-0.6-0.5-1.2-1-1.8-1.6c-1-0.9-2-1.9-2.9-2.9c-0.4-0.5-0.9-1-1.3-1.5
						c-0.2-0.2-0.3-0.4-0.5-0.6c0.8,0.9-0.1-0.2-0.3-0.4c-1.7-2.3-3.1-4.7-4.4-7.2c-0.3-0.6-0.6-1.2-0.8-1.8c-0.4-0.9,0,0,0,0.1
						c-0.2-0.3-0.3-0.7-0.4-1.1c-0.6-1.5-1.1-3.1-1.5-4.6c-0.4-1.5-0.7-2.9-1-4.4c-0.1-0.4-0.1-0.7-0.2-1.1c0-0.3-0.2-1.3,0-0.2
						c-0.1-0.9-0.2-1.8-0.3-2.7c-0.3-3.2-0.2-6.4,0-9.6c0.1-0.8,0.1-1.5,0.2-2.3c-0.1,1.2,0.1-0.3,0.1-0.5c0-0.3,0.1-0.6,0.1-0.9
						c0.3-1.6,0.6-3.2,1-4.8c0.4-1.4,0.8-2.9,1.3-4.2c0.2-0.4,0.3-0.8,0.5-1.2c-0.3,0.9-0.1,0.1,0,0c0.4-0.8,0.8-1.6,1.2-2.4
						c0.4-0.7,0.9-1.5,1.3-2.2c0.2-0.3,0.5-0.6,0.7-1c-0.5,0.7-0.1,0.1,0.2-0.2c1-1.2,2.1-2.3,3.3-3.3c0.2-0.2,0.4-0.3,0.6-0.5
						c0.4-0.3,0.4-0.3-0.1,0.1c0.2-0.2,0.4-0.3,0.6-0.5c0.6-0.5,1.3-0.9,2-1.3c0.7-0.4,1.4-0.8,2.1-1.1c0.2-0.1,0.5-0.2,0.7-0.3
						c0.2-0.1,0.5-0.2,0.7-0.3c-0.6,0.2-0.6,0.3-0.1,0.1c2.4-1,4.4-3.4,3.5-6.2C606.5,439,603.7,436.9,601.1,437.9L601.1,437.9z"/>
				</g>
			</g>
			<g>
				<g>
					<path class="st3" d="M461.1,446.4c-1.1-1.1-2.2-2.2-3.2-3.4c-0.2-0.3-0.5-0.6-0.7-0.8c-0.1-0.2-0.3-0.3-0.4-0.5
						c-0.4-0.4,0.3,0.4,0.3,0.4c-0.2-0.1-0.7-0.9-0.8-1c-0.3-0.4-0.5-0.7-0.8-1.1c-2.1-3-4-6.3-5.6-9.6c-0.4-0.8-0.8-1.7-1.2-2.5
						c-0.2-0.4-0.4-0.8-0.5-1.2c-0.1-0.2-0.4-0.9-0.1-0.3c0.3,0.7-0.1-0.3-0.2-0.4c-0.7-1.8-1.4-3.5-1.9-5.3
						c-0.6-1.8-1.1-3.5-1.5-5.3c-0.2-0.9-0.4-1.8-0.5-2.7c-0.1-0.4-0.1-0.8-0.2-1.2c0-0.2-0.1-0.9,0-0.2c0.1,0.9,0-0.2,0-0.3
						c-0.2-1.6-0.3-3.2-0.2-4.9c0-0.7,0.1-1.5,0.1-2.2c0-0.2,0.1-0.4,0.1-0.6c0-0.1-0.2,1.2-0.1,0.6c0.1-0.4,0.1-0.9,0.2-1.3
						c0.4-1.8,0.9-3.6,1.6-5.3c0.1-0.2,0.2-0.4,0.3-0.7c0.2-0.5-0.1,0.4-0.2,0.4c0.3-0.3,0.4-0.9,0.6-1.3c0.4-0.9,0.9-1.7,1.3-2.5
						c0.4-0.8,0.9-1.5,1.4-2.3c0.3-0.4,0.5-0.8,0.8-1.2c0.1-0.1,0.3-0.3,0.3-0.4c-0.4,0.5-0.5,0.6-0.2,0.3c0.1-0.1,0.2-0.3,0.3-0.4
						c1.2-1.4,2.4-2.8,3.8-4c0.6-0.5,1.6-1.1,2-1.7c0,0-0.8,0.6-0.3,0.2c0.2-0.1,0.4-0.3,0.6-0.4c0.4-0.3,0.9-0.6,1.3-0.9
						c1.5-1,3.2-1.8,4.8-2.6c0.6-0.3-0.9,0.3-0.2,0.1c0.2-0.1,0.3-0.1,0.5-0.2c0.4-0.2,0.9-0.3,1.3-0.5c0.9-0.3,1.8-0.6,2.7-0.8
						c0.5-0.1,0.9-0.2,1.4-0.3c0.2,0,1.5-0.3,0.8-0.1c-0.7,0.1,0.7-0.1,0.9-0.1c0.6,0,1.2-0.1,1.9-0.1c1,0,2.1-0.1,3.1,0.2
						c-1.2-0.3,0.4,0.1,0.7,0.2c0.5,0.1,1.1,0.2,1.6,0.4c0.5,0.2,1,0.3,1.5,0.5c-1-0.4,0.4,0.2,0.6,0.4c0.4,0.2,0.8,0.5,1.2,0.8
						c0.1,0.1,0.8,0.6,0.3,0.2c-0.5-0.4,0.4,0.4,0.4,0.4c0.4,0.3,0.7,0.7,1,1c0.2,0.2,0.4,0.4,0.5,0.6c0.1,0.1,0.6,0.8,0.3,0.3
						c-0.4-0.5,0.1,0.1,0.1,0.2c0.2,0.2,0.3,0.5,0.5,0.7c0.3,0.5,0.7,1,1,1.6c0.5,0.9,1,1.9,1.4,2.9c-0.4-0.9,0.1,0.4,0.2,0.7
						c0.2,0.6,0.4,1.2,0.6,1.9c0.7,2.2,1.1,4.4,1.5,6.7c0.1,0.8-0.1-0.8,0,0c0,0.3,0.1,0.6,0.1,0.9c0.1,0.5,0.1,1,0.2,1.6
						c0.1,1.2,0.2,2.4,0.2,3.6c0.1,2.4,0.1,4.9,0,7.3c-0.1,1.1-0.1,2.1-0.2,3.2c0,0.2-0.2,2-0.1,0.9c-0.1,0.7-0.2,1.3-0.3,2
						c-0.4,2.3-1,4.6-1.8,6.8c-0.2,0.4-0.3,0.9-0.5,1.3c-0.3,0.7,0.4-0.8,0.1-0.1c-0.1,0.2-0.2,0.5-0.3,0.7
						c-0.4,0.9-0.9,1.8-1.4,2.7c-0.5,0.8-1,1.6-1.6,2.4c-0.1,0.2-0.3,0.5-0.5,0.6c0.1-0.1,0.7-0.8,0.1-0.1c-0.3,0.4-0.7,0.8-1,1.2
						c-0.6,0.7-1.3,1.4-2,2c-0.2,0.2-0.4,0.3-0.6,0.5c-0.1,0.1-0.8,0.6-0.2,0.2c0.5-0.4,0,0-0.1,0.1c-0.3,0.2-0.5,0.4-0.8,0.5
						c-0.8,0.5-1.6,1-2.5,1.4c-0.2,0.1-0.5,0.2-0.7,0.4c0.2-0.1,0.8-0.3-0.1,0c-0.3,0.1-0.6,0.2-0.9,0.3c-0.5,0.2-0.4,0,0,0
						c-0.2,0-0.6,0.1-0.9,0c1,0.4,0.6,0,0.2,0c-0.7-0.2-0.1,0.2,0.2,0.1c-0.1,0-0.6-0.3-0.6-0.3c-0.1-0.1-0.7-0.3-0.1,0
						c0.6,0.3,0,0-0.2-0.2c-0.1-0.1-1.2-1.1-1.1-1.2c0,0,0.7,1,0.1,0.1c-0.1-0.2-0.2-0.3-0.3-0.5c-0.3-0.5-0.6-1-0.9-1.5
						c-0.3-0.5,0.1,0.1,0.1,0.2c-0.1-0.3-0.2-0.5-0.3-0.8c0-0.1-0.2-0.7-0.2-0.8c0,0.2,0,0.3,0.1,0.5c0-0.2,0-0.4,0-0.6
						c0-0.5,0-0.9,0-1.4c0-1-0.1,0.1,0,0.2c0-0.2,0.1-0.6,0.1-0.7c0.2-0.9,0.5-1.8,0.8-2.7c0.2-0.4,0.3-0.9,0.5-1.3
						c0.1-0.2,0.1-0.3,0.2-0.5c0.3-0.7-0.4,0.8-0.1,0.2c0.4-0.9,0.9-1.8,1.3-2.7c0.5-0.8,0.9-1.6,1.5-2.4c0.1-0.1,0.3-0.5,0.4-0.6
						c-0.1,0.1-0.7,0.9-0.1,0.2c0.3-0.4,0.6-0.7,0.9-1c0.1-0.1,1-0.9,1-0.9c0,0.1-1.1,0.7-0.3,0.2c0.1-0.1,0.3-0.1,0.4-0.2
						c0.2-0.1,0.8-0.3,0.1-0.1c-0.7,0.3-0.1,0,0.1,0c0.2,0,1.4-0.3,1.4-0.3c0,0-1.1,0.1-0.5,0.1c0.2,0,0.4,0,0.7,0
						c0.4,0,0.8,0,1.2,0c0.2,0,0.5,0,0.7,0c1,0-0.3,0-0.3-0.1c0.1-0.1,1.3,0.3,1.5,0.3c0.4,0.1,0.8,0.2,1.1,0.3c0,0,0.6,0.2,0.6,0.2
						c0,0-1.1-0.6-0.3-0.1c0.3,0.2,0.6,0.4,1,0.5c0.2,0.1,0.6,0.6,0.1,0c-0.6-0.6,0.1,0.1,0.2,0.2c0.2,0.2,0.3,0.3,0.5,0.5
						c0.5,0.5-0.2,0-0.1-0.2c0,0.1,0.6,1,0.6,1c0.1,0.1,0.1,0.4,0.2,0.5c-0.5-0.5-0.3-0.7-0.1-0.2c0.1,0.5,0.3,1,0.4,1.6
						c0,0.2,0.1,0.5,0.1,0.7c0.1,0.6-0.1-0.4-0.1-0.4c-0.1,0.3,0.1,1.1,0.1,1.5c0,1,0,1.9,0,2.9c-0.1,2.6,2.4,5.1,5,5
						c2.8-0.1,4.9-2.2,5-5c0.2-5.1-0.6-10.5-4.1-14.4c-3.1-3.5-8.6-5.2-13.2-5c-2.5,0.1-5.1,0.6-7.2,1.9c-2.2,1.4-3.9,3.4-5.4,5.5
						c-1.3,1.8-2.3,3.8-3.2,5.8c-0.9,2.2-1.9,4.4-2.4,6.7c-1.1,5.8,0.6,12.1,5.2,16.1c2.3,2.1,5.3,3.4,8.5,3.2
						c3-0.2,5.9-1.5,8.4-3.1c8.7-5.6,14-15.3,15.8-25.3c1-5.5,1.2-11.1,0.9-16.7c-0.3-5.4-1-11-2.8-16.1c-2-5.5-4.9-10.6-9.6-14.1
						c-4.3-3.3-9.9-4.5-15.2-4.3c-18.8,0.6-35,16.8-37.3,35.2c-1,8,1.1,16.4,3.9,23.8c3.1,8.3,7.3,16.1,13,22.9
						c1.1,1.3,2.2,2.5,3.4,3.6c1.9,1.8,5.2,2,7.1,0C462.9,451.5,463.2,448.3,461.1,446.4L461.1,446.4z"/>
				</g>
			</g>
			<g>
				<g>
					<path class="st3" d="M447.3,353.6c5.9,1.1,11.8,2.5,17.5,4.4c2.8,0.9,5.5,1.9,8.2,3c0.4,0.1,0.7,0.3,1.1,0.4
						c0.3,0.1,0.3,0.1-0.1-0.1c0.1,0.1,0.3,0.1,0.4,0.2c0.7,0.3,1.4,0.6,2.1,0.9c0.6,0.3,1.3,0.6,1.9,0.9c0.3,0.2,0.7,0.3,1,0.5
						c0.1,0.1,0.3,0.1,0.4,0.2c1,0.6,0.6,0-1.2-1.8c0-0.9,0-1.8,0-2.7c0.1-0.2,0.2-0.5,0.3-0.7c0.6-0.6,1.2-1.2,1.8-1.8
						c-0.1,0-0.1,0.1-0.2,0.1c0.8-0.2,1.7-0.5,2.5-0.7c-0.1,0-0.2,0-0.3,0c-2.6,0.2-5.1,2.2-5,5c0.1,2.6,2.2,5.2,5,5
						c2-0.1,3.6-0.9,4.8-2.6c0.9-1.3,1.1-3.1,0.7-4.6c-0.8-2.7-3.1-3.8-5.4-4.9c-3.7-1.7-7.4-3.3-11.2-4.7c-7-2.6-14.3-4.5-21.6-5.8
						c-2.6-0.5-5.5,0.7-6.2,3.5C443.3,349.9,444.6,353.1,447.3,353.6L447.3,353.6z"/>
				</g>
			</g>
			<g>
				<g>
					<path class="st3" d="M541.9,364.9c3.1-1.6,6.3-3.1,9.6-4.5c0.3-0.1,1-0.4,0.3-0.1c0.4-0.2,0.9-0.4,1.3-0.5
						c0.9-0.4,1.7-0.7,2.6-1c1.6-0.6,3.3-1.2,4.9-1.8c3.3-1.2,6.7-2.1,10-3.3c3.4-1.2,5.2-4.7,3.5-8c-0.8-1.6-2.8-2.6-4.6-2.5
						c-1.9,0.1-3.5,1-4.5,2.6c-0.9,1.3-1,3.7,0,5c0,0,0,0.1,0.1,0.1c0.8,1.1,1.6,1.9,3,2.3c1.2,0.3,2.8,0.2,3.9-0.5
						c2-1.3,3.5-4.6,1.8-6.8c0,0,0-0.1-0.1-0.1c0,1.7,0,3.4,0,5c0,0,0-0.1,0.1-0.1c-1,0.8-2,1.5-3,2.3c-0.3,0-0.7,0.1-1,0.1
						c-0.8-0.2-1.7-0.5-2.5-0.7c0,0,0.1,0,0.1,0.1c-0.8-1-1.5-2-2.3-3c0,0,0,0.1,0.1,0.1c0-0.9,0-1.8,0-2.7c0,0.1-0.1,0.2-0.1,0.2
						c0.4-0.7,0.9-1.5,1.3-2.2c0.5-0.3,1-0.6,1.5-0.9c-0.2,0-0.3,0.1-0.5,0.1c-0.4,0.1-0.8,0.2-1.2,0.4c-0.6,0.2-1.2,0.4-1.9,0.6
						c-1.3,0.4-2.6,0.9-4,1.3c-2.6,0.9-5.3,1.9-7.9,2.9c-5.3,2.1-10.5,4.4-15.6,7c-2.3,1.2-3.2,4.6-1.8,6.8
						C536.5,365.5,539.4,366.2,541.9,364.9L541.9,364.9z"/>
				</g>
			</g>
			<g>
				<g>
					<path class="st3" d="M510.4,472.3c-0.9-1.3-1.7-2.6-2.5-4c-0.4-0.7-0.8-1.4-1.1-2.2c-0.2-0.3-0.3-0.7-0.5-1
						c-0.1-0.3-0.7-1.2-0.1-0.2c-0.7-1.2-1.1-2.9-1.5-4.2c0-0.1-0.3-0.9-0.2-1c0.1,0.4,0.1,0.9,0,1.3c-0.1,0.2-0.2,0.4-0.3,0.6
						c0.5-0.8-0.5,0.8-0.8,0.7c0.1,0,0.8-0.5,0.9-0.5c0.3-0.2,0.2-0.1-0.5,0.2c0.2-0.1,0.4-0.1,0.5-0.2c0.4-0.1,0.7-0.3,1.1-0.4
						c0.8-0.3,1.6-0.5,2.4-0.7c0.7-0.2,1.5-0.4,2.3-0.5c0.3-0.1,2.1-0.6,2.3-0.4c-0.6,0.1-0.8,0.1-0.4,0.1c0.2,0,0.4,0,0.6-0.1
						c0.4,0,0.8-0.1,1.2-0.1c0.8-0.1,1.5-0.1,2.3-0.1c1.7,0,3.3,0.1,5,0.2c-1.6-2.1-3.2-4.2-4.8-6.3c-0.2,1.4-0.7,2.6-1.1,3.9
						c0.4-1.3,0.1-0.4,0,0c-0.2,0.3-0.3,0.7-0.5,1c-0.1,0.1-1.2,1.6-1.1,1.7c0.4-0.6,0.5-0.7,0.3-0.4c-0.1,0.1-0.2,0.2-0.3,0.4
						c-0.2,0.2-0.4,0.5-0.6,0.7c-0.5,0.5-1.1,1-1.6,1.5c-0.7,0.6,0.9-0.6,0,0c-0.3,0.2-0.5,0.4-0.8,0.5c-0.6,0.4-1.3,0.7-1.9,1.1
						c-2.4,1.1-3.2,4.7-1.8,6.8c1.6,2.4,4.3,3,6.8,1.8c6.3-3,11.2-9.4,12.3-16.3c0.6-3.5-1.3-6-4.8-6.3c-4.1-0.4-8.1-0.2-12.1,0.5
						c-1.8,0.3-3.5,0.7-5.3,1.3c-1.9,0.6-3.9,1.2-5.5,2.3c-2.8,2-4,4.8-3.4,8.2c0.3,1.7,0.9,3.3,1.5,4.9c1.4,3.7,3.2,7.1,5.4,10.4
						c1.5,2.1,4.5,3.3,6.8,1.8C510.8,477.8,512,474.6,510.4,472.3L510.4,472.3z"/>
				</g>
			</g>
			<g>
				<g>
					<path class="st3" d="M472,487c-6.6-0.7-13.6,2.1-17.2,7.8c-3.5,5.5-3,13.8,2.1,18.2c2.7,2.3,5.9,3.4,9.4,4
						c3.6,0.6,7.2,1,10.8,1.1c6.9,0.2,13.9-0.9,20-4.3c6.1-3.4,11.1-9,12.9-15.9c-3.2,0-6.4,0-9.6,0c2.3,5.6,6.4,10.1,11.8,12.9
						c5.8,3.1,12.3,4.2,18.8,4.2c3.2,0,6.5-0.2,9.7-0.5c3.3-0.3,6.8-0.6,10-1.6c6.4-2,12.1-7.1,12.3-14.2c0.2-7.3-6.1-13.3-12.8-15
						c-2.5-0.6-5.5,0.8-6.2,3.5c-0.6,2.6,0.8,5.5,3.5,6.2c0.5,0.1,1,0.3,1.5,0.5c0.7,0.2-0.8-0.4-0.2-0.1c0.2,0.1,0.4,0.2,0.6,0.3
						c0.3,0.2,1.2,0.5,1.4,0.9c0-0.1-0.9-0.8-0.2-0.1c0.2,0.2,0.5,0.4,0.7,0.6c0.2,0.2,0.4,0.4,0.6,0.6c0.4,0.4,0.3,0.1-0.1-0.2
						c0.3,0.2,0.6,0.9,0.7,1.2c0.4,0.7-0.1-0.1-0.1-0.3c0,0.2,0.2,0.5,0.2,0.6c0.1,0.2,0.1,0.4,0.2,0.7c0.3,1,0-1,0,0
						c0,0.2,0,0.5,0,0.7c0,1-0.1-0.2,0-0.3c0.1,0-0.8,1.9-0.3,1.1c0.4-0.6-0.1,0.1-0.1,0.2c-0.1,0.2-0.3,0.4-0.4,0.6
						c-0.3,0.6,0.6-0.6,0.1-0.1c-0.3,0.3-0.5,0.5-0.8,0.8c-0.2,0.2-0.4,0.3-0.5,0.5c-0.5,0.5,0.7-0.5,0.1-0.1
						c-0.5,0.3-0.9,0.6-1.4,0.9c-0.2,0.1-0.4,0.2-0.7,0.3c0.2-0.1,0.9-0.3,0,0c-0.7,0.3-1.4,0.5-2.1,0.7c-0.6,0.1-1.2,0.3-1.7,0.4
						c-0.3,0-2,0.3-0.9,0.2c-1.4,0.2-2.7,0.3-4.1,0.4c-2.8,0.3-5.7,0.5-8.5,0.5c-1.3,0-2.5,0-3.8-0.1c-0.6,0-1.2-0.1-1.9-0.2
						c-1-0.1-0.3,0-0.1,0c-0.5-0.1-0.9-0.1-1.4-0.2c-1.2-0.2-2.4-0.5-3.6-0.8c-0.5-0.1-0.9-0.3-1.4-0.5c-0.3-0.1-0.6-0.2-0.9-0.3
						c0.5,0.3,0.6,0.2,0,0c-1.1-0.5-2.1-1.1-3.1-1.7c-0.5-0.3-1.1-0.6-1.5-1.1c0.8,0.7,0.3,0.3,0.1,0.1c-0.3-0.2-0.6-0.5-0.8-0.7
						c-0.4-0.4-0.9-0.9-1.3-1.3c-0.2-0.2-0.3-0.4-0.5-0.6c-0.8-0.9,0.6,0.9-0.1-0.1c-0.3-0.5-0.6-0.9-0.9-1.4
						c-0.2-0.3-0.3-0.5-0.4-0.8c-0.1-0.3-0.6-1.3-0.1-0.1c-0.8-2-2.4-3.8-4.8-3.7c-2.2,0.1-4.3,1.5-4.8,3.7
						c-0.1,0.6-0.3,1.2-0.5,1.7c-0.1,0.2-0.3,0.5-0.3,0.7c0-0.6,0.3-0.7,0.1-0.2c-0.3,0.5-0.5,1.1-0.9,1.6c-0.1,0.2-1.1,1.4-1,1.5
						c-0.1-0.2,0.6-0.7,0.1-0.2c-0.2,0.2-0.4,0.5-0.6,0.7c-0.4,0.4-0.8,0.8-1.1,1.2c-0.4,0.4-0.8,0.7-1.2,1.1c-0.6,0.5,1-0.7,0,0
						c-0.3,0.2-0.6,0.4-0.9,0.6c-0.9,0.6-1.9,1.2-2.9,1.7c-0.2,0.1-0.4,0.2-0.7,0.3c-0.8,0.4,0.1,0,0.2-0.1
						c-0.6,0.3-1.3,0.5-1.9,0.7c-1.3,0.4-2.6,0.7-4,1c-0.4,0.1-0.7,0.1-1.1,0.2c0.2,0,1-0.1,0,0c-0.8,0.1-1.5,0.1-2.3,0.2
						c-2.9,0.2-5.8,0-8.7-0.2c-0.8-0.1-1.5-0.2-2.3-0.3c1,0.1-0.5-0.1-0.9-0.1c-1.3-0.2-2.6-0.4-3.8-0.8c-0.1,0-0.6-0.1-0.7-0.2
						c0.2,0.1,0.3,0.1,0.5,0.2c-0.2-0.1-0.3-0.2-0.5-0.2c-0.3-0.1-0.6-0.3-0.8-0.5c-0.6-0.3-0.1,0.1,0.1,0.1c-0.3,0-1.2-1.4-0.8-0.7
						c0.4,0.7-0.1-0.2-0.2-0.3c-0.1-0.1-0.1-0.2-0.2-0.3c-0.2-0.5-0.2-0.4,0.1,0.3c-0.1,0-0.3-1.1-0.4-1.3c-0.3-1,0,0.9,0,0.2
						c0-0.3,0-0.6,0-0.8c0-0.2,0-1.3,0.1-1.3c0,0-0.2,1.2,0,0.2c0.1-0.3,0.2-0.7,0.3-1c0.3-0.9-0.2-0.1-0.1,0.1
						c-0.1-0.1,0.4-0.8,0.5-0.9c0.1-0.1,0.4-0.5,0.4-0.6c-0.4,0.5-0.5,0.6-0.2,0.3c0.1-0.1,0.2-0.3,0.4-0.4c0.2-0.2,0.3-0.3,0.5-0.5
						c0.2-0.2,0.4-0.3,0.5-0.5c-0.1,0.1-0.3,0.2-0.4,0.3c0.2-0.4,1.3-0.8,1.7-1c0.1,0,0.1-0.1,0.2-0.1c0.5-0.2,0.4-0.2-0.2,0.1
						c0.2-0.2,0.8-0.3,1-0.3c0.4-0.1,1.5-0.1,1.8-0.4c-0.3,0.3-0.9,0.1-0.2,0c0.4,0,0.7-0.1,1.1-0.1c0.7,0,1.5,0,2.2,0.1
						c2.6,0.3,5.1-2.5,5-5C476.9,489.1,474.8,487.3,472,487L472,487z"/>
				</g>
			</g>
			<g>
				<g>
					<path class="st3" d="M295,473.4c-1.8,4.5-3,9.1-3.7,13.9c-0.4,2.6-0.6,5-0.1,7.6c0.5,2.8,2.1,5.1,4.4,6.6
						c2.2,1.4,5.6,0.5,6.8-1.8c1.3-2.5,0.5-5.3-1.8-6.8c-0.4-0.3-0.3-0.2,0.3,0.3c-0.4-0.4-0.3-0.3,0.2,0.4
						c-0.1-0.2-0.2-0.3-0.3-0.5c-0.2-0.5-0.2-0.3,0.2,0.4c0.1-0.1-0.2-0.8-0.3-1c-0.1-0.4,0-0.2,0.1,0.6c0-0.2,0-0.4,0-0.6
						c0-0.8,0-1.6,0.1-2.5c0-0.3,0.2-1.5,0-0.3c0.1-0.5,0.2-1.1,0.3-1.6c0.7-4.1,1.8-8.1,3.4-11.9c1-2.4-1.1-5.6-3.5-6.2
						C298.2,469.2,296,470.8,295,473.4L295,473.4z"/>
				</g>
			</g>
			<g>
				<g>
					<path class="st3" d="M302.9,483.8c-2.1,7.2-0.9,15.3,3.2,21.5c1.4,2.2,4.5,3.3,6.8,1.8c2.2-1.4,3.3-4.5,1.8-6.8
						c-0.4-0.6-0.8-1.3-1.2-2c-0.2-0.3-0.3-0.7-0.5-1c-0.2-0.5-0.2-0.4,0.2,0.4c-0.1-0.2-0.1-0.4-0.2-0.5c-0.5-1.4-0.9-2.9-1.1-4.5
						c0.1,0.4,0.1,0.9,0.2,1.3c-0.3-1.9-0.3-3.8,0-5.8c-0.1,0.4-0.1,0.9-0.2,1.3c0.1-1.1,0.4-2.1,0.7-3.1c0.7-2.5-0.9-5.6-3.5-6.2
						C306.4,479.7,303.7,481.1,302.9,483.8L302.9,483.8z"/>
				</g>
			</g>
			<g>
				<g>
					<path class="st3" d="M710.8,495.3c0.3,3.1,0.4,6.1,0.1,9.2c0,0.3-0.1,0.7-0.1,1.1c0-1.3,0-0.3,0,0.1c-0.1,0.8-0.3,1.6-0.5,2.4
						c-0.1,0.7-0.3,1.4-0.5,2.1c-0.1,0.3-0.2,0.7-0.3,1c-0.1,0.2-0.1,0.5-0.2,0.7c-0.4,1.3,0.1,0.6,1.7-2c0.8-0.2,1.7-0.5,2.5-0.7
						c-0.1,0-0.1,0-0.2,0c1.2,0.5,2.4,1,3.5,1.5c0.2,0.3,0.4,0.5,0.6,0.8c0.2,0.8,0.5,1.7,0.7,2.5c0,0,0-0.1,0-0.1
						c-0.5,1.2-1,2.4-1.5,3.5c0,0,0.1-0.1,0.1-0.1c0.9-0.7,1.5-2.4,1.5-3.5c0-1.2-0.5-2.7-1.5-3.5c-1-0.9-2.2-1.5-3.5-1.5
						c-1.4,0.1-2.4,0.6-3.5,1.5c-2.3,1.8-1.9,5.6,0,7.5c2.1,2,5.6,2,7.6-0.2c1.8-2,2.3-5.2,2.8-7.7c0.9-4.7,1.2-9.6,0.7-14.4
						c-0.2-1.4-0.5-2.5-1.5-3.5c-0.9-0.9-2.3-1.5-3.5-1.5C713.3,490.4,710.5,492.5,710.8,495.3L710.8,495.3z"/>
				</g>
			</g>
			<g>
				<g>
					<path class="st3" d="M722.3,486.3c0,3.2-0.1,6.3-0.6,9.4c0.1-0.4,0.1-0.9,0.2-1.3c-0.2,1.4-0.4,2.8-0.7,4.1
						c-0.3,1.3-0.2,2.7,0.5,3.9c0.6,1,1.8,2,3,2.3c1.3,0.3,2.7,0.2,3.9-0.5c1.1-0.7,2-1.7,2.3-3c1-4.9,1.5-9.9,1.4-14.9
						c0-2.6-2.3-5.1-5-5C724.6,481.4,722.3,483.5,722.3,486.3L722.3,486.3z"/>
				</g>
			</g>
			<g>
				<g>
					<path class="st3" d="M498.7,560.8c-1.9-4-4.5-7.6-7.5-10.8c-3-3.1-6.6-5.9-10.5-7.7c-4.5-2.1-9.8-3.1-14.4-0.6
						c-4.6,2.5-6.2,7.8-6.2,12.7c0,4.9,0.6,9.8,0.9,14.7c0.2,2.6,0.3,5.1,0.5,7.7c0.2,2.7,0.1,5.7,0.9,8.4c1.6,5.2,6.5,8.1,11.7,8.7
						c4.8,0.5,9.7-1.8,13.5-4.5c4.5-3.2,8.7-6.8,11.3-11.7c2.5-4.7,3.8-10.1,3.5-15.4c-0.2-2.6-2.2-5.1-5-5c-2.6,0.1-5.2,2.2-5,5
						c0.1,0.9,0.1,1.7,0,2.6c0,0.5-0.1,0.9-0.1,1.4c0,0.1-0.1,0.8,0,0.1c0.1-0.7,0,0.2-0.1,0.3c-0.2,0.9-0.4,1.7-0.6,2.5
						c-0.1,0.4-0.2,0.8-0.4,1.1c-0.1,0.3-0.7,1.6-0.2,0.7c-0.4,0.8-0.7,1.6-1.2,2.3c-0.2,0.4-0.5,0.8-0.7,1.2
						c-0.1,0.2-0.2,0.3-0.3,0.5c-0.1,0.1-0.6,0.8-0.2,0.3c0.4-0.5,0,0.1-0.1,0.1c-0.2,0.2-0.3,0.4-0.5,0.6c-0.3,0.3-0.6,0.6-0.9,0.9
						c-0.7,0.7-1.5,1.4-2.3,2.1c-0.2,0.1-0.3,0.3-0.5,0.4c-0.6,0.5,0.6-0.4,0,0c-0.3,0.3-0.7,0.5-1,0.8c-0.8,0.6-1.6,1.2-2.5,1.7
						c-0.8,0.5-1.6,0.9-2.4,1.3c-0.9,0.4,0.6-0.2-0.4,0.1c-0.5,0.2-1.1,0.3-1.6,0.5c-0.2,0-0.4,0.1-0.6,0.1c-0.7,0.2,0.9,0,0.2,0
						c-0.3,0-0.7,0-1,0c-1.2,0,0.6,0.2-0.2,0c-0.4-0.1-0.8-0.2-1.2-0.3c-1.1-0.3,0.5,0.3-0.2-0.1c-0.1-0.1-0.7-0.5-0.9-0.5
						c0,0,0.7,0.6,0.3,0.3c-0.1-0.1-0.3-0.2-0.4-0.3c0,0-0.5-0.4-0.5-0.5c0,0,0.6,0.9,0.2,0.2c-0.1-0.1-0.2-0.3-0.2-0.4
						c-0.3-0.5,0.1,0.8,0.1,0.1c0-0.2-0.1-0.5-0.2-0.7c0-0.1-0.1-0.8-0.1-0.2c0.1,0.6,0-0.2,0-0.2c0-0.3,0-0.6-0.1-0.9
						c0-0.6-0.1-1.2-0.1-1.7c-0.1-2.2-0.3-4.5-0.4-6.7c-0.3-4.5-0.6-8.9-0.9-13.4c-0.1-1.8-0.3-3.6-0.2-5.4c0-0.2,0-0.4,0-0.6
						c0-0.7,0.2,0,0,0.2c0.1-0.1,0.2-0.8,0.2-1.1c0-0.2,0.1-0.3,0.2-0.5c0.1-0.5-0.1,0.3-0.2,0.4c0.1-0.1,0.7-1.1,0.7-1.2
						c0,0.1-0.6,0.6-0.2,0.3c0,0,0.4-0.4,0.4-0.4c0.1,0.2-0.8,0.5-0.2,0.2c0.1-0.1,0.3-0.2,0.4-0.2c0.5-0.3-0.4,0.2-0.4,0.2
						c0,0,0.7-0.2,0.7-0.2c0.2,0,0.7-0.1,0,0c-0.8,0.1,0,0,0.2,0c0.2,0,1.1,0.1,1.2,0c0,0-1-0.2-0.4-0.1c0.2,0,0.4,0.1,0.5,0.1
						c0.3,0.1,2.5,0.6,2.5,0.8c0,0-0.9-0.4-0.3-0.1c0.3,0.1,0.6,0.3,0.8,0.4c0.4,0.2,0.8,0.4,1.1,0.6c0.8,0.5,1.7,1,2.5,1.6
						c0.2,0.1,0.4,0.3,0.6,0.5c0.5,0.3,0.2,0.2-0.1-0.1c0.4,0.3,0.7,0.6,1.1,0.9c0.7,0.6,1.5,1.3,2.2,2c0.7,0.7,1.4,1.5,2.1,2.3
						c0.1,0.1,0.3,0.3,0.4,0.5c0.1,0.1,0.6,0.8,0.2,0.3c-0.4-0.5,0,0,0.1,0.1c0.2,0.3,0.4,0.5,0.6,0.8c1.2,1.7,2.2,3.4,3,5.2
						c1.1,2.4,4.7,3.2,6.8,1.8C499.3,566.1,499.9,563.4,498.7,560.8L498.7,560.8z"/>
				</g>
			</g>
			<g>
				<g>
					<path class="st3" d="M434.9,544.3c-12.7-2.6-25.6-5.2-38.6-4.6c-10.8,0.5-21.6,3.2-30.7,9.1c-9.3,6.1-17.4,15.8-18.3,27.3
						c-0.9,11.2,8,20.8,18.3,23.9c12.5,3.7,25.8-2.7,34.2-11.9c-2.4,0-4.7,0-7.1,0c9.3,8.6,25.9,8.1,34-2.1c-2.4,0-4.7,0-7.1,0
						c6.4,6.3,17,5.8,23.4-0.1c6.4-5.8,7.8-15.8,4.9-23.7c-1.8-4.8-4.7-8.9-8.4-12.4c-1.9-1.8-5.2-2-7.1,0c-1.8,1.9-2,5.2,0,7.1
						c0.8,0.7,1.6,1.5,2.3,2.3c0.4,0.4,0.7,0.8,1,1.3c-0.8-1,0.3,0.4,0.4,0.6c0.6,0.9,1.2,1.8,1.6,2.8c0.1,0.2,0.8,1.8,0.3,0.6
						c0.1,0.4,0.3,0.7,0.4,1.1c0.3,1,0.6,2.1,0.8,3.1c0.1,0.6,0.1,0.5,0-0.2c0,0.2,0,0.5,0.1,0.7c0,0.5,0,1,0,1.5
						c0,0.5-0.1,1-0.1,1.5c-0.1,0.6-0.1,0.5,0-0.2c0,0.2-0.1,0.5-0.1,0.7c-0.2,0.9-0.5,1.8-0.8,2.7c-0.1,0.3-0.1,0.2,0.1-0.3
						c-0.1,0.2-0.2,0.4-0.3,0.7c-0.2,0.4-0.5,0.9-0.7,1.3c-0.1,0.2-0.3,0.4-0.4,0.6c-0.3,0.4-0.3,0.4,0.1-0.1
						c-0.1,0.3-0.7,0.8-1,1.1c-0.2,0.2-0.4,0.3-0.5,0.5c-0.4,0.4-0.4,0.3,0.2-0.1c-0.2,0.3-0.9,0.6-1.2,0.7
						c-0.2,0.1-0.4,0.2-0.6,0.3c-0.5,0.2-0.4,0.2,0.2-0.1c-0.1,0.2-0.9,0.3-1.2,0.4c-0.4,0.1-0.8,0.2-1.2,0.3
						c-0.6,0.1-0.5,0.1,0.3,0c-0.2,0-0.5,0-0.7,0c-0.5,0-0.9,0-1.4,0c-0.6-0.1-0.5,0,0.3,0.1c-0.2,0-0.5-0.1-0.7-0.1
						c-0.4-0.1-0.9-0.2-1.3-0.4c-0.5-0.2-0.4-0.1,0.2,0.1c-0.2-0.1-0.4-0.2-0.6-0.3c-0.2-0.1-1.1-0.5-1.2-0.7
						c0.6,0.4,0.6,0.5,0.2,0.1c-0.2-0.2-0.3-0.3-0.5-0.5c-1.8-1.7-5.4-2.1-7.1,0c-0.7,0.9-1.6,1.7-2.4,2.5c-0.8,0.7,0.9-0.6,0,0
						c-0.2,0.1-0.4,0.3-0.7,0.4c-0.5,0.3-1,0.6-1.5,0.9c0,0-0.9,0.4-0.9,0.4c0-0.1,1.2-0.4,0.2-0.1c-0.6,0.2-1.1,0.4-1.7,0.5
						c-0.6,0.2-1.1,0.3-1.7,0.4c-0.8,0.2-0.2-0.1,0.2,0c-0.2-0.1-0.7,0.1-1,0.1c-1.2,0.1-2.4,0-3.5,0c-0.9-0.1,0.8,0.2,0.2,0
						c-0.3-0.1-0.5-0.1-0.8-0.1c-0.6-0.1-1.2-0.3-1.9-0.5c-0.2-0.1-1.3-0.6-1.5-0.5c0.7,0.3,0.8,0.3,0.5,0.2
						c-0.1-0.1-0.3-0.1-0.4-0.2c-0.2-0.1-0.5-0.2-0.7-0.4c-0.5-0.3-1-0.6-1.5-0.9c-0.9-0.6,0.8,0.7,0,0c-0.2-0.2-0.5-0.4-0.7-0.6
						c-1.9-1.8-5.2-2.1-7.1,0c-0.8,0.9-1.6,1.7-2.5,2.5c-0.4,0.4-0.8,0.7-1.2,1.1c-0.2,0.2-0.4,0.3-0.6,0.5
						c-0.9,0.7,0.6-0.4-0.3,0.2c-1.9,1.4-4,2.7-6.2,3.7c-0.2,0.1-0.5,0.2-0.7,0.3c1-0.4,0.2-0.1-0.1,0c-0.6,0.2-1.1,0.4-1.7,0.6
						c-1.1,0.4-2.3,0.6-3.4,0.8c-0.2,0-0.5,0.1-0.8,0.1c1.1-0.1,0.4-0.1,0.2,0c-0.6,0-1.2,0.1-1.8,0.1c-0.6,0-1.2,0-1.8,0
						c-0.3,0-0.5,0-0.8,0c-0.5,0-1.1-0.4-0.1,0c-0.9-0.3-2-0.4-2.9-0.7c-0.5-0.2-1-0.3-1.5-0.5c-0.5-0.2-0.1-0.3,0.2,0.1
						c-0.1-0.2-0.8-0.4-1-0.5c-0.9-0.5-1.8-1-2.6-1.5c-0.2-0.2-0.6-0.3-0.7-0.5c0.1,0.1,0.9,0.7,0.2,0.1c-0.4-0.4-0.9-0.8-1.3-1.2
						c-0.3-0.3-0.7-0.7-1-1c-0.2-0.2-0.3-0.4-0.5-0.5c-0.8-0.8,0.4,0.7,0,0.1c-0.6-0.9-1.2-1.8-1.7-2.8c-0.1-0.2-0.2-0.5-0.3-0.6
						c0.1,0.1,0.4,1.1,0.1,0.2c-0.2-0.5-0.3-1-0.5-1.5c0-0.2-0.4-1.4-0.3-1.5c0,0,0.1,1.3,0,0.3c0-0.4-0.1-0.7-0.1-1.1
						c0-0.6,0-1.2,0-1.8c0-1,0-0.2,0,0c0-0.3,0.1-0.6,0.2-0.9c0.3-1.4,0.7-2.7,1.2-4c0.3-0.8-0.5,1,0.1-0.2c0.1-0.3,0.3-0.5,0.4-0.8
						c0.2-0.5,0.5-0.9,0.7-1.4c0.6-1,1.2-2,1.9-3c0.2-0.3,1.1-1.7,0.4-0.6c0.2-0.4,0.6-0.8,0.9-1.1c0.8-0.9,1.6-1.7,2.4-2.5
						c0.7-0.7,1.5-1.4,2.3-2.1c0.2-0.2,0.4-0.3,0.6-0.5c0.9-0.8-0.6,0.4,0,0c0.5-0.4,1-0.7,1.5-1.1c1.8-1.2,3.7-2.3,5.6-3.3
						c0.6-0.3,1.1-0.5,1.7-0.8c0.1-0.1,0.6-0.3,0.7-0.3c0,0-1.1,0.4-0.2,0.1c1-0.4,2.1-0.8,3.2-1.2c2.1-0.7,4.3-1.3,6.5-1.8
						c1.1-0.2,2.2-0.4,3.3-0.6c0.3,0,0.9-0.2-0.2,0c0.3-0.1,0.7-0.1,1-0.1c0.8-0.1,1.6-0.2,2.4-0.2c6.5-0.5,13-0.1,19.4,0.7
						c1.6,0.2-0.6-0.1,0.4,0c0.4,0.1,0.8,0.1,1.2,0.2c0.9,0.1,1.8,0.3,2.7,0.4c1.6,0.3,3.2,0.5,4.8,0.8c3.3,0.6,6.6,1.3,9.9,1.9
						c2.6,0.5,5.5-0.7,6.2-3.5C439,547.9,437.7,544.8,434.9,544.3L434.9,544.3z"/>
				</g>
			</g>
			<g>
				<g>
					<path class="st3" d="M595.2,542.2c-6.5-3.4-13.9-5.3-21.2-4.6c-7,0.6-13.3,3.2-18.7,7.6c-4.9,4-8.8,9.9-9.9,16.2
						c-1.3,7.2,0.4,14.8,6.4,19.4c5.6,4.2,14.9,4.2,19.5-1.5c-2.4,0-4.7,0-7.1,0c11.1,10.3,29,10.4,40.4,0.5c-2,0.3-4,0.5-6.1,0.8
						c6.3,4.7,14.3,6.5,22,6.6c7.1,0.1,14.3-1.4,19.9-6c6.2-5.2,6.9-14.3,2.1-20.7c-5.4-7.1-14.1-9.2-22.4-11.2
						c-9.7-2.3-19.6-4.1-29.5-5.4c-2.6-0.3-5.1,2.5-5,5c0.1,3,2.2,4.6,5,5c1.6,0.2-1-0.1,0.6,0.1c0.5,0.1,1,0.1,1.4,0.2
						c1,0.1,1.9,0.3,2.9,0.4c1.9,0.3,3.8,0.6,5.8,1c3.8,0.7,7.6,1.4,11.4,2.3c3.7,0.8,7.4,1.7,11.1,2.7c1.5,0.4,3,0.9,4.5,1.4
						c0.2,0.1,1.4,0.6,0.4,0.1c0.4,0.2,0.8,0.4,1.1,0.5c0.9,0.5,1.7,1,2.5,1.5c1.1,0.7-0.7-0.7,0.2,0.2c0.2,0.2,0.5,0.4,0.7,0.7
						c0.2,0.2,0.4,0.5,0.7,0.7c0.9,0.9-0.5-0.8,0.2,0.2c0.4,0.5,1.1,1.4,1.2,2c-0.1-0.2-0.1-0.3-0.2-0.5c0.1,0.2,0.2,0.5,0.3,0.7
						c0.1,0.4,0.4,1,0.4,1.5c0.1-1.2-0.1-0.4-0.1,0c0,0.2,0.1,0.8,0,1c0-0.2,0.1-0.4,0.1-0.6c0,0.2-0.1,0.4-0.1,0.6
						c-0.1,0.3-0.2,0.6-0.3,0.9c-0.3,1,0.6-1,0-0.1c-0.1,0.3-0.3,0.5-0.4,0.8c-0.1,0.2-0.5,0.5-0.5,0.7c0.5-0.6,0.6-0.7,0.2-0.3
						c-0.1,0.1-0.1,0.1-0.2,0.2c-0.2,0.2-1.3,1-1.3,1.3c0.2-0.1,0.3-0.3,0.5-0.4c-0.2,0.1-0.3,0.2-0.5,0.4c-0.3,0.2-0.5,0.3-0.8,0.5
						c-0.6,0.3-1.1,0.6-1.7,0.9c-0.9,0.4,0.3-0.1,0.3-0.1c-0.1,0.2-1.1,0.4-1.3,0.5c-1.3,0.4-2.6,0.8-3.9,1c-0.1,0-0.2,0-0.3,0.1
						c-0.6,0.1-0.4,0.1,0.3,0c-0.1,0-0.5,0.1-0.7,0.1c-0.9,0.1-1.7,0.1-2.6,0.2c-1.8,0.1-3.6,0-5.3-0.1c-0.4,0-0.8-0.1-1.2-0.1
						c-0.6-0.1-0.5-0.1,0.1,0c-0.3,0-0.5-0.1-0.8-0.1c-0.9-0.2-1.9-0.4-2.8-0.6c-0.9-0.2-1.7-0.5-2.5-0.8c-0.3-0.1-0.6-0.2-1-0.3
						c-0.3-0.1-0.5-0.2-0.8-0.3c0.6,0.2,0.6,0.2,0.1,0c-1.7-0.9-3.3-1.8-4.9-2.9c-1.8-1.4-4.5-0.6-6.1,0.8c-0.2,0.2-0.5,0.6-0.8,0.7
						c0.6-0.4,0.6-0.5,0.2-0.1c-0.1,0.1-0.3,0.2-0.4,0.3c-0.6,0.4-1.2,0.8-1.8,1.1c-0.7,0.4-1.3,0.7-2,1c-0.9,0.4,1-0.3-0.1,0
						c-0.3,0.1-0.6,0.2-1,0.3c-1.3,0.4-2.7,0.7-4,1c-1.1,0.2,1-0.1,0,0c-0.3,0-0.7,0.1-1,0.1c-0.8,0.1-1.5,0.1-2.3,0.1
						c-0.7,0-1.4,0-2.1-0.1c-0.2,0-1.3-0.3-0.5-0.1c0.8,0.2-0.5-0.1-0.7-0.1c-1.4-0.3-2.7-0.6-4-1.1c-0.3-0.1-1.2-0.6-0.1,0
						c-0.3-0.2-0.6-0.3-0.9-0.4c-0.6-0.3-1.2-0.6-1.8-1c-0.6-0.4-1.2-0.7-1.7-1.1c-0.8-0.6,0.8,0.6-0.2-0.2
						c-0.3-0.3-0.6-0.5-0.9-0.8c-1.8-1.7-5.3-2.2-7.1,0c-0.1,0.1-1.1,0.9-1.1,1.1c0-0.4,0.9-0.6,0.2-0.2c-0.2,0.1-0.4,0.2-0.7,0.4
						c-0.8,0.4,0.3-0.2,0.4-0.1c-0.1,0-0.8,0.2-0.9,0.3c-0.1,0-0.5,0.1-0.6,0.1c0.8-0.1,1-0.1,0.4-0.1c-0.1,0-0.2,0-0.3,0
						c-0.5,0-1,0-1.6,0c-1-0.1,0.9,0.3,0.2,0c-0.2-0.1-0.5-0.1-0.8-0.2c-0.2-0.1-1.7-0.6-0.9-0.3c0.8,0.3-0.2-0.1-0.3-0.2
						c-0.3-0.1-0.6-0.3-0.8-0.5c-0.1-0.1-0.2-0.1-0.3-0.2c-0.3-0.2-0.3-0.2,0,0c0.1,0.1,0.2,0.1,0.3,0.2c-0.2-0.1-0.3-0.3-0.5-0.4
						c-0.1-0.1-0.3-0.3-0.4-0.5c-0.8-0.7,0.5,0.9-0.1-0.1c-0.3-0.5-0.6-0.9-0.9-1.4c-0.5-0.9,0,0,0,0c0,0-0.3-1-0.4-1.1
						c-0.1-0.4-0.5-1.4-0.4-1.8c-0.1,0.7,0.1,0.7,0,0.2c0-0.4-0.1-0.8-0.1-1.1c0-0.6,0-1.1,0-1.7c0-0.3,0-0.7,0.1-1
						c-0.4,1.2,0,0.1,0.1-0.2c0.2-1.1,0.5-2.6,1.1-3.6c-0.1,0.1-0.5,1-0.1,0.2c0.1-0.3,0.3-0.6,0.4-0.8c0.3-0.6,0.6-1.2,1-1.8
						c0.3-0.5,0.7-1,1-1.5c0.2-0.2,0.4-0.8-0.1,0.1c0.1-0.3,0.4-0.5,0.6-0.7c0.8-1,1.8-1.9,2.7-2.7c0.2-0.2,0.4-0.3,0.6-0.5
						c0.9-0.8-0.9,0.6,0.2-0.1c0.5-0.3,0.9-0.6,1.4-0.9c1.1-0.7,2.2-1.3,3.4-1.9c0.8-0.4,0,0-0.2,0.1c0.3-0.2,0.7-0.3,1-0.4
						c0.5-0.2,1.1-0.4,1.6-0.5c0.6-0.2,1.2-0.3,1.8-0.5c0.4-0.1,0.8-0.2,1.3-0.3c0.3,0,1.5-0.2,0.4-0.1c1.6-0.2,3.1-0.2,4.7-0.2
						c0.8,0,1.6,0.1,2.4,0.2c0.8,0.1-1.2-0.2,0.2,0c0.4,0.1,0.8,0.1,1.3,0.2c1.5,0.3,3.1,0.7,4.6,1.2c0.4,0.1,0.8,0.3,1.2,0.4
						c0.2,0.1,1.4,0.6,0.4,0.1c0.8,0.4,1.6,0.7,2.3,1.1c2.3,1.2,5.5,0.7,6.8-1.8C598.2,546.8,597.7,543.5,595.2,542.2L595.2,542.2z"
						/>
				</g>
			</g>
			<g>
				<g>
					<path class="st3" d="M609.7,319.3c1.9-1,3.9-2,5.8-2.9c0.9-0.4,1.8-0.9,2.7-1.3c0.5-0.2,1-0.4,1.5-0.7c0.1,0,1.4-0.6,0.5-0.2
						c1.9-0.8,3.9-1.6,5.8-2.3c0.9-0.3,1.9-0.7,2.8-1c0.4-0.1,0.9-0.2,1.3-0.4c0.4-0.1,0.2-0.1-0.4,0.1c0.6,0,0.5,0-0.3,0
						c-0.7-0.2-1.3-0.6-1.7-1.2c-0.1-0.2-0.2-0.4-0.2-0.6c0.1,0.2,0.1,0.5,0.2,0.7c-0.1-0.7-0.1-0.8,0-0.2c0,0.9,0.1,1.8,0.1,2.7
						c0,2.1-0.1,4.3-0.4,6.4c0.1-0.9,0,0.2-0.1,0.5c-0.1,0.5-0.2,0.9-0.2,1.3c-0.2,1-0.4,2.1-0.7,3.1c-0.6,2.1-1.3,4.1-2.1,6
						c2.4-1,4.9-2,7.3-3c0.9,0.7,0.1,0-0.1-0.2c-0.6-0.6,0.2,0.5,0,0c-0.3-0.6-0.7-1.1-1-1.6c-0.8-1.4-1.8-2.6-2.8-3.8
						c-1.8-2.1-4.2-3.8-6.6-5.1c-4.8-2.6-10.2-4-15.5-5.2c-2.5-0.6-5.5,0.8-6.2,3.5c-0.6,2.5,0.8,5.5,3.5,6.2
						c2.5,0.6,4.9,1.1,7.4,1.9c1.2,0.4,2.3,0.8,3.5,1.2c0.6,0.2-0.9-0.4,0,0c0.3,0.2,0.7,0.3,1,0.5c0.5,0.3,1.1,0.5,1.6,0.8
						c0.5,0.3,1,0.6,1.5,0.9c0.2,0.2,0.5,0.3,0.7,0.5c0.5,0.3-0.7-0.6,0,0c0.7,0.6,2.1,1.6,2.5,2.5c-0.4-0.5-0.5-0.6-0.2-0.3
						c0.1,0.1,0.2,0.3,0.3,0.4c0.1,0.2,0.3,0.4,0.4,0.6c0.4,0.6,0.7,1.2,1.1,1.8c1.1,1.7,2.3,3,3.9,4.2c1.3,0.9,3.1,0.8,4.5,0.3
						c1.5-0.7,2.3-1.7,2.9-3.2c2-4.8,3.1-9.8,3.6-15c0.2-2.3,0.3-4.6,0.1-6.8c-0.2-3.2-0.8-6.6-3.8-8.4c-2.7-1.7-5.8-1.2-8.6-0.2
						c-2.2,0.8-4.4,1.6-6.5,2.5c-4.9,2-9.6,4.2-14.3,6.6c-2.3,1.2-3.2,4.6-1.8,6.8C604.3,319.9,607.2,320.6,609.7,319.3L609.7,319.3
						z"/>
				</g>
			</g>
			<g>
				<g>
					<path class="st3" d="M561.7,453.3c16.6-6.5,29.6-21.3,31.3-39.4c1.6-17.4-9-36.5-26.3-41.5c-5.5-1.6-11.1-1.2-16.3,1.2
						c-4.6,2.1-8.4,5.8-11.4,9.8c-2.9,3.8-5.2,7.9-7.2,12.2c-2.2,4.8-4.1,9.8-5.1,14.9c-2,9.9-1.3,20.8,4.5,29.4
						c1.6,2.3,3.4,4.5,5.8,6.1c2.7,1.8,6,2.3,9.1,1.5c5.4-1.2,9.9-5.8,11.7-10.9c1.4-3.9,1.2-8.6,0.7-12.6
						c-0.6-4.6-1.7-9.6-5.4-12.7c-3.5-2.8-8.1-4.4-12.6-4.1c-5.2,0.3-9.4,3-12.2,7.4c-1.2,2-2.1,4.2-2.9,6.3c-0.9,2.5,1,5.6,3.5,6.2
						c2.8,0.6,5.2-0.9,6.2-3.5c0.1-0.4,0.3-0.8,0.4-1.2c0.5-1.2-0.3,0.5,0.1-0.3c0.4-0.8,0.8-1.6,1.3-2.4c0.1-0.2,0.3-0.4,0.4-0.6
						c0.3-0.5-0.2,0.3-0.2,0.3c0.2-0.1,0.6-0.7,0.8-0.9c0.2-0.2,0.4-0.3,0.5-0.5c0.4-0.4-0.3,0.2-0.3,0.2c0.3,0,1.1-0.7,1.3-0.8
						c0.5-0.3-0.4,0.2-0.4,0.2c0,0,0.6-0.2,0.5-0.2c0.3-0.1,0.7-0.1,1-0.2c0.5-0.1-0.6,0.1-0.6,0.1c0.1,0,0.6,0,0.6,0
						c0.4,0,0.8,0,1.3,0c0.2,0,1.5,0.1,0.6,0c-0.8-0.1,0.4,0.1,0.6,0.1c0.4,0.1,0.7,0.2,1.1,0.3c0.2,0,0.3,0.1,0.5,0.2
						c0.2,0.1,0.3,0.1,0.5,0.2c0.3,0.1,0.2,0.1-0.1-0.1c-0.1,0.1-0.5-0.3,0,0c0.2,0.1,0.4,0.2,0.6,0.3c0.3,0.2,0.6,0.4,0.9,0.6
						c0.4,0.2-0.4-0.2-0.4-0.3c0,0.1,0.4,0.3,0.4,0.4c0.1,0.1,0.3,0.3,0.4,0.4c0.5,0.5-0.2-0.2-0.2-0.3c0,0.2,0.4,0.7,0.5,0.9
						c0.1,0.2,0.2,0.4,0.3,0.6c0.3,0.5-0.2-0.4-0.2-0.4c0,0.3,0.3,0.9,0.4,1.2c0.2,0.5,0.3,1.1,0.4,1.6c0.1,0.4,0.2,0.7,0.2,1.1
						c0,0.2,0.1,0.5,0.1,0.7c0.1,0.8-0.1-0.2,0-0.2c0,0,0.2,2.6,0.2,2.8c0,0.9,0,1.7,0,2.6c0,0.3-0.3,2.4-0.1,2.5
						c-0.1,0,0.2-1.3,0-0.3c0,0.2-0.1,0.3-0.1,0.5c-0.1,0.4-0.2,0.8-0.3,1.2c0,0.1-0.3,0.6-0.2,0.7c0-0.1,0.4-0.9,0.1-0.4
						c-0.2,0.4-0.4,0.9-0.7,1.3c-0.1,0.1-0.6,0.7-0.2,0.3c0.4-0.5,0,0-0.1,0.1c-0.3,0.3-0.7,0.6-1,1c-0.5,0.5,0.6-0.4,0,0
						c-0.2,0.1-0.4,0.2-0.5,0.4c-0.5,0.3-1,0.6-1.5,0.8c0.7-0.4,0.3-0.1,0.1,0c-0.2,0.1-0.4,0.1-0.6,0.2c-0.2,0.1-1,0.1-0.3,0.1
						c0.7,0,0,0-0.1,0c-1.1-0.1,0.1,0.1,0.1,0c-0.1,0.1-0.5-0.1-0.6-0.2c-0.6-0.1,0.6,0.4,0.1,0c-0.2-0.1-1-0.7-0.2,0
						c-0.7-0.6-1.4-1.3-2-2c-0.1-0.2-0.3-0.3-0.4-0.5c-0.5-0.6,0.4,0.7,0,0.1c-0.3-0.4-0.6-0.9-0.9-1.3c-0.5-0.8-1-1.6-1.4-2.5
						c-0.2-0.3-0.6-1.4-0.2-0.5c-0.2-0.5-0.4-1-0.6-1.5c-0.3-0.9-0.6-1.8-0.8-2.7c-0.1-0.5-0.2-0.9-0.3-1.4c0-0.2-0.1-0.4-0.1-0.6
						c0,0-0.2-1.3-0.1-0.5c0.1,0.7-0.1-0.7-0.1-1c0-0.5-0.1-0.9-0.1-1.4c0-1,0-2.1,0-3.1c0-1.1,0.2-2.1,0.3-3.2
						c-0.1,1.1,0.1-0.7,0.2-0.9c0.1-0.6,0.2-1.2,0.3-1.8c0.5-2.2,1.1-4.3,1.8-6.4c0.3-1,0.7-2,1.1-3c0.2-0.5,0.4-1,0.6-1.5
						c0.1-0.2,0.4-0.9,0-0.1c0.1-0.3,0.2-0.6,0.4-0.8c1.6-3.7,3.5-7.3,5.8-10.6c0.3-0.5,0.6-0.9,1-1.3c-0.6,0.8,0.2-0.2,0.4-0.4
						c0.7-0.8,1.4-1.6,2.1-2.3c0.7-0.7,1.4-1.3,2.2-2c0.1-0.1,0.6-0.5,0.1-0.1c-0.5,0.4,0.2-0.1,0.3-0.2c0.4-0.3,0.9-0.6,1.4-0.9
						c0.4-0.2,0.8-0.5,1.3-0.7c0.2-0.1,0.5-0.2,0.7-0.4c0.1,0,0.7-0.3,0.2-0.1c-0.6,0.2,0.1,0,0.2,0c0.3-0.1,0.5-0.2,0.8-0.3
						c0.5-0.2,1.1-0.3,1.6-0.4c0.3-0.1,0.9,0-0.1,0c0.2,0,0.4,0,0.6,0c0.5,0,1,0,1.5,0c0.5,0,1,0.1,1.5,0.1c0.8,0.1-0.8-0.2,0,0
						c0.3,0.1,0.7,0.1,1.1,0.2c1,0.2,2,0.5,2.9,0.9c0.3,0.1,1.2,0.5,0.4,0.2c0.6,0.3,1.2,0.6,1.8,0.9c0.8,0.4,1.5,0.9,2.2,1.3
						c0.3,0.2,0.7,0.5,1,0.7c0.1,0.1,0.3,0.2,0.4,0.3c0.5,0.4-0.8-0.6,0,0c1.3,1.1,2.6,2.2,3.7,3.5c0.3,0.3,0.5,0.6,0.8,0.9
						c0.2,0.2,0.9,1.1,0.5,0.6c-0.4-0.6,0.3,0.5,0.5,0.6c0.3,0.4,0.5,0.8,0.8,1.2c1,1.5,1.8,3.1,2.6,4.7c0.1,0.2,0.1,0.3,0.2,0.5
						c0.2,0.5-0.1-0.4-0.2-0.4c0.1,0.4,0.4,0.9,0.5,1.3c0.3,0.8,0.6,1.7,0.8,2.5c0.5,1.7,0.8,3.4,1.1,5.1c0.1,0.4-0.1,0.6,0-0.3
						c0,0.2,0,0.4,0.1,0.5c0,0.4,0.1,0.8,0.1,1.2c0.1,0.9,0.1,1.8,0.1,2.7c0,0.8,0,1.7-0.1,2.5c0,0.4-0.1,0.8-0.1,1.2
						c0,0.2-0.1,0.5-0.1,0.7c0-0.3,0.1-0.9,0-0.3c-0.3,1.8-0.7,3.6-1.3,5.3c-0.3,0.8-0.5,1.6-0.9,2.4c-0.1,0.2-0.1,0.3-0.2,0.5
						c-0.3,0.7,0.4-0.8,0.1-0.2c-0.2,0.4-0.4,0.9-0.6,1.3c-0.8,1.6-1.6,3.1-2.6,4.6c-0.5,0.7-1,1.4-1.5,2.1
						c-0.5,0.6,0.1-0.2,0.1-0.1c0,0-0.3,0.4-0.3,0.4c-0.3,0.4-0.6,0.8-0.9,1.1c-1.2,1.3-2.4,2.6-3.7,3.8c-0.6,0.6-1.3,1.1-1.9,1.7
						c-0.2,0.2-0.4,0.3-0.6,0.5c-0.6,0.5,0.2-0.1,0.1-0.1c0,0.1-1.1,0.8-1.2,0.9c-1.5,1-3,2-4.5,2.8c-0.8,0.4-1.5,0.8-2.3,1.2
						c-0.4,0.2-0.8,0.4-1.2,0.5c0.1,0,1-0.4,0.2-0.1c-0.2,0.1-0.5,0.2-0.7,0.3c-2.4,0.9-4.4,3.4-3.5,6.2
						C556.3,452.2,559.1,454.4,561.7,453.3L561.7,453.3z"/>
				</g>
			</g>
			<g>
				<g>
					<path class="st3" d="M503.4,565.1c0.2-0.9,0.5-1.7,0.7-2.5c0.1-0.4,0.3-0.8,0.5-1.2c0.2-0.5-0.1,0.3-0.1,0.3
						c0.1-0.3,0.3-0.6,0.4-0.9c0.8-1.6,1.7-3.1,2.7-4.5c0.1-0.1,0.2-0.4,0.3-0.5c-0.4,0.2-0.5,0.6-0.1,0.1c0.3-0.3,0.6-0.7,0.9-1
						c0.6-0.7,1.3-1.4,2-2c0.3-0.3,0.6-0.5,0.8-0.8c0.1-0.1,1.2-1,0.7-0.6c-0.5,0.4,0.5-0.4,0.7-0.5c0.4-0.3,0.8-0.6,1.3-0.8
						c0.7-0.5,1.5-0.9,2.3-1.3c0.8-0.4-0.8,0.3,0.1,0c0.4-0.2,0.9-0.3,1.3-0.4c0.4-0.1,0.8-0.2,1.2-0.3c1.3-0.2-0.7,0,0.2,0
						c0.4,0,0.8,0,1.2,0c0,0,0.5,0.1,0.5,0c-0.2,0.3-1.1-0.3-0.2,0c0.1,0.1,0.3,0.1,0.5,0.1c0.9,0.2-0.3,0-0.3-0.1
						c0,0,0.4,0.2,0.4,0.2c0.4,0.3-0.4-0.4-0.4-0.3c0.1-0.2,0.9,1.2,0.5,0.5c-0.3-0.6,0,0.1,0.1,0.2c0.3,0.5-0.2-0.8-0.1-0.2
						c0,0.2,0.1,0.5,0.2,0.7c0.2,0.6-0.1-0.4-0.1-0.4c0.2,0.2,0,1,0,1.3c0,0.6,0-0.4,0.1-0.4c0,0-0.1,0.7-0.1,0.8
						c-0.1,0.5-0.2,1-0.4,1.5c-0.6,1.9-1.5,3.7-2.2,5.5c-0.8,2.2-1.1,4.6-1,6.9c0.2,2.3,0.7,4.4,1.3,6.6c0.3,0.9,0.6,1.9,0.8,2.8
						c0.1,0.5,0.2,0.9,0.3,1.4c0,0.2,0.1,0.4,0.1,0.6c0.1,0.3,0.4,1.1,0,0.1c0.3,0.8,0.1,1.8,0.1,2.6c0,0.7,0.2-0.8,0-0.1
						c-0.1,0.2-0.1,0.4-0.1,0.6c0,0.2-0.1,0.6-0.2,0.7c0.2-0.2,0.4-0.7,0-0.1c-0.4,0.6,0.1,0.1,0.1-0.1c0,0.1-0.4,0.3-0.4,0.4
						c-0.3,0.4,0.2-0.3,0.3-0.2c0,0-0.5,0.3-0.6,0.4c-0.2,0.2-0.5,0.1,0,0c0.7-0.1,0,0-0.2,0c-0.2,0-0.3,0.1-0.5,0.1
						c-0.9,0.2,0.7,0,0.1,0c-0.4,0-0.7,0-1.1,0c-0.2,0-0.5,0-0.7,0c-0.6,0,0.4,0.1,0.4,0.1c-0.7,0.1-2-0.4-2.6-0.6
						c-0.4-0.1-0.8-0.3-1.2-0.4c-0.8-0.3,0.9,0.4-0.3-0.1c-0.8-0.4-1.6-0.8-2.3-1.3c-0.4-0.2-0.8-0.5-1.2-0.8
						c-0.1-0.1-0.3-0.2-0.4-0.3c-0.6-0.4,0.9,0.8,0,0c-0.7-0.6-1.3-1.2-2-1.8c-0.3-0.3-0.7-0.7-1-1c-0.2-0.2-0.3-0.4-0.5-0.5
						c-0.1-0.1-0.6-0.7-0.2-0.2c0.4,0.6,0-0.1-0.1-0.2c-0.1-0.2-0.3-0.4-0.4-0.6c-0.3-0.4-0.5-0.8-0.8-1.2c-0.5-0.8-0.9-1.7-1.3-2.5
						c-0.3-0.6,0.3,0.9,0.1,0.2c-0.1-0.2-0.2-0.4-0.3-0.7c-0.2-0.4-0.3-0.9-0.5-1.3c-0.3-0.9-0.5-1.8-0.7-2.8c0-0.2,0-0.4-0.1-0.5
						c0.3,1.1,0.1,0.5,0,0.1c0-0.5-0.1-1.1-0.1-1.6c-0.1-2.6-2.3-5.1-5-5c-2.7,0.1-5.1,2.2-5,5c0.2,9.3,5,17.7,12.4,23.2
						c3.7,2.7,8.1,4.5,12.6,4.9c5.8,0.6,11.1-2.5,13-8.1c1.7-5.1-0.3-10.3-1.5-15.2c-0.1-0.5-0.3-1.1-0.4-1.6c0-0.2-0.2-0.7-0.2-0.8
						c0,0.1,0.1,1.2,0,0.1c0-0.5-0.1-1.1-0.1-1.6c0-0.3,0-0.5,0-0.8c0,0.7-0.1,0.4,0.1-0.1c0.5-2.3,1.6-4.4,2.5-6.6
						c1.8-4.8,1.6-11.1-2.7-14.6c-4-3.2-9.5-3.3-14.2-1.4c-9.7,3.9-17.1,12.9-19.7,22.9c-0.6,2.5,0.8,5.5,3.5,6.2
						C499.9,569.1,502.7,567.8,503.4,565.1L503.4,565.1z"/>
				</g>
			</g>
			<g>
				<g>
					<path class="st3" d="M480.1,572.7c3-1.2,6-2.4,9-3.6c0.7-0.2,1.2-0.5,1.7-0.9c0.5-0.4,1-0.8,1.3-1.4c0.6-1.1,0.9-2.7,0.5-3.9
						c-0.4-1.2-1.1-2.4-2.3-3c-1.1-0.6-2.6-1-3.9-0.5c-3,1.2-6,2.4-9,3.6c-0.7,0.2-1.2,0.5-1.7,0.9c-0.5,0.4-1,0.8-1.3,1.4
						c-0.6,1.1-0.9,2.7-0.5,3.9c0.4,1.2,1.1,2.4,2.3,3C477.4,572.8,478.9,573.2,480.1,572.7L480.1,572.7z"/>
				</g>
			</g>
			<g>
				<g>
					<path class="st3" d="M504.1,565.8c1.8,0.8,3.6,1.5,5.6,1.9c1.9,0.4,3.9,0.6,5.9,0.6c1.3,0,2.6-0.6,3.5-1.5
						c0.9-0.9,1.5-2.3,1.5-3.5c-0.1-1.3-0.5-2.6-1.5-3.5c-1-0.9-2.2-1.5-3.5-1.5c-1,0-2-0.1-3-0.2c0.4,0.1,0.9,0.1,1.3,0.2
						c-2-0.3-3.9-0.8-5.7-1.6c0.4,0.2,0.8,0.3,1.2,0.5c-0.1,0-0.2-0.1-0.3-0.1c-0.6-0.4-1.2-0.6-1.9-0.6c-0.7-0.1-1.3-0.1-2,0.1
						c-1.2,0.3-2.4,1.2-3,2.3c-0.6,1.2-0.9,2.6-0.5,3.9C502.1,563.9,502.9,565.3,504.1,565.8L504.1,565.8z"/>
				</g>
			</g>
		</g>
	</g>
</g>
<g id="Layer_2">
	<g>
		<g>
			<g>
				<path class="st2" d="M469.6,159.9c0-59.8-92.1-108.3-205.8-108.3S58,100.1,58,159.9c0,54.6,69.1,101.6,169,109
					c3.4,5,8.3,18.2,20.8,32.2c18.7,20.9,64.1,32.7,64.1,32.7s-21.3-23.9-28.2-39.4c-3.4-7.6-4.2-17-1.7-26
					C385.4,262.7,469.6,215.8,469.6,159.9z"/>
			</g>
			<g>
				<path class="st4" d="M469.6,159.9c0-59.8-92.1-108.3-205.8-108.3S58,100.1,58,159.9c0,54.6,69.1,101.6,169,109
					c3.4,5,8.3,18.2,20.8,32.2c18.7,20.9,64.1,32.7,64.1,32.7s-21.3-23.9-28.2-39.4c-3.4-7.6-4.2-17-1.7-26
					C385.4,262.7,469.6,215.8,469.6,159.9z"/>
			</g>
		</g>
		<g>
			<path class="st5" d="M158.6,126.9c0,2.8-0.4,5.9-1.1,9.3c-0.7,3.4-1.7,6.8-2.8,10.2s-2.4,6.8-3.7,10s-2.6,6.1-3.7,8.6
				c-0.6,1.4-1.4,3.2-2.3,5.3c-0.9,2.1-2,4.4-3.1,6.8c-1.1,2.4-2.4,4.9-3.7,7.3c-1.3,2.5-2.7,4.7-4.1,6.6c-1.4,1.9-2.8,3.5-4.3,4.8
				c-1.5,1.2-2.9,1.9-4.4,1.9c-2,0-3.5-0.8-4.4-2.2c-0.9-1.5-1.3-3.2-1.3-5c0-1.8,0.3-3.7,0.9-5.7c0.6-2,1.4-4,2.3-6
				c0.9-2,1.9-3.9,3.1-5.7c1.1-1.8,2.2-3.5,3.1-5c-1.3-0.3-2.5-0.9-3.7-1.7c-1.2-0.8-2.1-1.8-2.7-3c-1-2.2-2.1-4.8-3.2-7.6
				c-1.1-2.8-2.1-5.7-2.9-8.6c-0.9-2.9-1.6-5.8-2.2-8.7c-0.6-2.9-0.9-5.6-0.9-8c0-1.1,0.1-2.4,0.4-3.8c0.3-1.4,0.7-2.6,1.3-3.8
				c0.6-1.2,1.4-2.2,2.4-3c1-0.8,2.2-1.2,3.7-1.2c1.7,0,3.1,0.6,4.4,1.9c1.3,1.2,2.4,2.8,3.4,4.7c1,1.9,1.8,4.1,2.5,6.4
				c0.7,2.4,1.3,4.7,1.8,7c0.5,2.3,0.9,4.4,1.2,6.3c0.3,1.9,0.6,3.4,0.9,4.5c0.3-1,0.7-2.4,1.3-4.4c0.6-1.9,1.3-4.1,2.2-6.5
				c0.9-2.4,1.8-4.8,3-7.3c1.1-2.5,2.3-4.8,3.5-6.8c1.2-2,2.6-3.7,4-5c1.4-1.3,2.8-2,4.3-2c1,0,1.8,0.4,2.4,1.1
				c0.6,0.7,1.1,1.5,1.5,2.5c0.4,1,0.6,1.9,0.7,3C158.5,125.4,158.6,126.2,158.6,126.9z"/>
			<path class="st5" d="M200.4,165.4c0,3.5-0.4,7-1.1,10.4c-0.7,3.4-1.9,6.5-3.5,9.2c-1.7,2.7-3.9,4.9-6.7,6.6s-6.2,2.5-10.4,2.5
				c-4.1,0-7.5-0.8-10.2-2.4c-2.7-1.6-4.9-3.8-6.6-6.5s-2.8-5.7-3.4-9.1c-0.7-3.4-1-6.8-1-10.3c0-3.8,0.4-7.6,1.3-11.4
				c0.2-1,0.6-2.4,1.1-4.3c0.5-1.8,1.2-3.6,2.1-5.4c0.9-1.8,1.8-3.3,3-4.5c1.1-1.3,2.3-1.9,3.7-1.9c1.3,0,2.3,0.4,3.1,1.1
				c0.8,0.7,1.4,1.6,1.8,2.6c0.4,1.1,0.7,2.2,0.9,3.3c0.1,1.2,0.2,2.2,0.2,3.2c0,1.5-0.1,2.9-0.3,4.3c-0.2,1.4-0.5,2.8-0.7,4.2
				c-0.3,1.9-0.5,3.8-0.7,5.7c-0.2,1.9-0.3,3.8-0.3,5.7c0,1,0,2,0.1,3.2c0.1,1.2,0.3,2.3,0.7,3.4c0.4,1.1,0.9,2,1.6,2.7
				c0.7,0.7,1.7,1.1,3,1.1c1.7,0,3-0.4,4-1.3c1-0.9,1.7-2,2.2-3.3s0.8-2.8,0.9-4.3c0.1-1.5,0.2-2.9,0.2-4.2c0-2.8-0.2-5.6-0.6-8.3
				c-0.4-2.7-0.7-5.5-1.1-8.3c-0.1-0.3-0.1-0.8-0.1-1.3c0-1,0.2-1.9,0.5-2.9c0.3-1,0.8-1.8,1.3-2.6s1.3-1.4,2.1-1.9
				c0.8-0.5,1.8-0.7,2.8-0.7c1.4,0,2.6,0.5,3.7,1.5c1.1,1,2,2.3,2.7,3.8c0.7,1.6,1.3,3.3,1.8,5.3c0.5,1.9,0.9,3.9,1.1,5.7
				c0.3,1.9,0.5,3.7,0.6,5.3C200.3,163.1,200.4,164.4,200.4,165.4z"/>
			<path class="st5" d="M265.3,161.2c0,1.2,0,2.9,0,4.9c0,2.1,0,4.3-0.1,6.7c-0.1,2.4-0.3,4.9-0.6,7.3c-0.3,2.5-0.8,4.7-1.5,6.7
				c-0.7,2-1.5,3.6-2.5,4.9c-1,1.3-2.3,1.9-3.9,1.9c-1.4,0-2.5-0.6-3.2-1.8c-0.7-1.2-1.3-2.6-1.6-4.2c-0.3-1.6-0.5-3.2-0.5-4.9
				c0-1.7,0-3,0-3.9c0-2.9,0.1-5.7,0.3-8.4c0.2-2.7,0.3-5.6,0.3-8.4c0-0.3,0-0.9,0-1.7c0-0.8-0.1-1.7-0.2-2.5
				c-0.1-0.8-0.3-1.6-0.6-2.2c-0.3-0.6-0.7-1-1.3-1c-1.1,0-2.1,0.6-2.8,1.8c-0.7,1.2-1.3,2.6-1.7,4.2c-0.4,1.6-0.8,3.2-1,4.7
				c-0.2,1.6-0.3,2.7-0.4,3.5c-0.1,0.8-0.2,2.1-0.3,3.7c-0.1,1.7-0.2,3.5-0.4,5.5c-0.2,2-0.4,4-0.8,6.1c-0.4,2.1-0.8,4-1.3,5.6
				c-0.5,1.7-1.2,3.1-2.1,4.2c-0.8,1.1-1.9,1.6-3.1,1.6c-1.5,0-2.7-0.7-3.5-2c-0.8-1.3-1.4-2.9-1.8-4.7c-0.4-1.8-0.6-3.6-0.7-5.5
				c-0.1-1.8-0.1-3.3-0.1-4.3c0-1.1,0-2.1,0-3.2c0-1,0-2.1,0-3.2c0-0.4,0-1.2,0-2.2c0-1,0-2.2,0-3.4c0-1.2-0.1-2.5-0.2-3.9
				s-0.2-2.6-0.4-3.7c-0.2-1.1-0.5-2-0.9-2.7c-0.4-0.7-0.8-1.1-1.3-1.1c-0.8,0-1.6,0.5-2.3,1.6c-0.7,1.1-1.3,2.3-1.8,3.7
				c-0.5,1.4-0.9,2.9-1.2,4.3c-0.3,1.4-0.4,2.4-0.4,3.1v0.6c0,3.1,0.2,6.1,0.6,9c0.4,2.9,0.6,5.9,0.6,9c0,1.8-0.6,3.4-1.7,4.9
				s-2.7,2.2-4.8,2.2c-1.5,0-2.7-0.6-3.6-1.7s-1.8-2.6-2.4-4.4c-0.6-1.8-1.1-3.7-1.5-5.9c-0.4-2.1-0.6-4.2-0.7-6.3
				c-0.1-2.1-0.2-4-0.2-5.6c0-1.7,0-3,0-3.8c0-1,0-2.4,0-4.2c0-1.8,0-3.9,0.1-6c0.1-2.2,0.3-4.4,0.5-6.7c0.3-2.3,0.7-4.3,1.2-6.2
				c0.6-1.8,1.3-3.4,2.2-4.5c0.9-1.2,2.1-1.8,3.6-1.8c1.7,0,3,0.4,4.1,1.3c1.1,0.9,1.6,2.2,1.6,4c0,0.4,0,0.8,0,1.1
				c0,0.4-0.1,0.7-0.1,1.1c0.7-1,1.6-2.1,2.6-3.1c1-1.1,2.1-2,3.3-2.9c1.2-0.9,2.4-1.6,3.8-2.1c1.3-0.5,2.7-0.8,4-0.8
				c1.3,0,2.4,0.4,3.4,1.1c1,0.7,1.9,1.6,2.7,2.6s1.4,2.2,1.9,3.4c0.5,1.2,0.9,2.4,1.1,3.4c0.6-1.1,1.4-2.3,2.3-3.5
				c0.9-1.2,1.9-2.2,3-3.1c1.1-0.9,2.3-1.6,3.6-2.2c1.3-0.6,2.7-0.9,4.1-0.9c1.3,0,2.5,0.5,3.4,1.4s1.8,2.2,2.5,3.7
				c0.7,1.5,1.2,3.2,1.6,5.1c0.4,1.9,0.7,3.7,1,5.6c0.3,1.8,0.4,3.5,0.5,5.1C265.3,159.1,265.3,160.3,265.3,161.2z"/>
			<path class="st5" d="M301.7,140.1c0,1.9-0.6,3.2-1.9,4.1c-1.2,0.9-2.6,1.7-4.2,2.5c-1.5,0.8-2.9,1.7-4.2,2.8
				c-1.2,1.1-1.9,2.7-1.9,4.9c0,1.1,0.3,2.1,0.8,3c0.5,0.8,1.2,1.6,2,2.2c0.8,0.7,1.7,1.4,2.6,2.1c1,0.7,1.8,1.5,2.6,2.4
				c0.8,0.9,1.5,2,2,3.3c0.5,1.3,0.8,2.8,0.8,4.7c0,2.7-0.7,5.3-2.1,7.9c-1.4,2.6-3.1,4.9-5.3,6.9c-2.1,2-4.5,3.6-7.2,4.8
				s-5.3,1.8-7.9,1.8c-1.1,0-2.2-0.1-3.3-0.2c-1.1-0.2-2.1-0.5-2.9-0.9s-1.6-1.1-2.2-1.9c-0.6-0.8-0.9-1.8-0.9-3.1
				c0-1.8,0.4-3.2,1.1-4.2c0.7-1,1.6-1.8,2.7-2.3c1.1-0.6,2.2-1,3.5-1.3c1.2-0.3,2.4-0.7,3.5-1.2c1.1-0.5,2-1.1,2.7-1.9
				c0.7-0.8,1.1-1.8,1.1-3.3c0-1.3-0.5-2.7-1.6-4.2s-2.2-3-3.5-4.6c-1.3-1.6-2.4-3.4-3.5-5.2c-1.1-1.8-1.6-3.9-1.6-6.1
				c0-2.7,0.6-5.3,1.7-7.6c1.1-2.3,2.6-4.4,4.5-6.1c1.9-1.7,4-3.1,6.5-4.1c2.4-1,5-1.5,7.7-1.5c1,0,2,0.1,3,0.3c1,0.2,1.9,0.5,2.6,1
				s1.4,1.1,1.9,1.9C301.4,137.9,301.7,138.9,301.7,140.1z"/>
			<path class="st5" d="M330.8,196.2c-4.5,0-8.1-0.6-10.6-1.8c-2.5-1.2-4.4-2.9-5.6-5c-1.2-2.2-2-4.8-2.2-7.8
				c-0.3-3.1-0.4-6.5-0.4-10.2c0-3,0.1-6,0.3-9c0.2-3,0.5-6.3,0.9-9.7c-0.9,0-1.6,0-2.1,0c-0.5,0-0.9,0-1.2,0c-2,0-3.8-0.4-5.3-1.3
				c-1.5-0.9-2.2-2.3-2.2-4.1c0-1.1,0.4-2.2,1.3-3.1c0.9-0.9,2-1.7,3.3-2.3c1.3-0.6,2.8-1.1,4.4-1.5c1.6-0.4,3-0.6,4.5-0.8
				c0-1.8,0.1-3.8,0.4-5.9c0.3-2.2,0.7-4.2,1.4-6.1c0.7-1.9,1.6-3.5,2.7-4.7c1.1-1.3,2.6-1.9,4.4-1.9c1,0,1.9,0.3,2.7,0.9
				c0.8,0.6,1.5,1.4,2,2.3c0.5,0.9,0.9,2,1.1,3.1c0.3,1.1,0.4,2.3,0.4,3.3c0,1.3-0.1,2.6-0.3,3.9s-0.5,3-1.1,5
				c1.1-0.1,1.8-0.2,2.2-0.2c0.4,0,0.7,0,1.1,0c1.1,0,2.2,0.1,3.4,0.3c1.2,0.2,2.3,0.5,3.3,1c1,0.4,1.8,1,2.4,1.8
				c0.6,0.7,1,1.6,1,2.6c0,1.1-0.5,2.2-1.4,3.1c-0.9,0.9-2.1,1.7-3.5,2.3c-1.4,0.6-2.9,1.1-4.5,1.5c-1.6,0.4-3.1,0.6-4.5,0.7
				c-0.4,2.6-0.7,5-0.8,7.2c-0.2,2.2-0.3,4.4-0.5,6.7c-0.1,1.1-0.2,2.2-0.3,3.3c-0.1,1.1-0.1,2.2-0.1,3.4c0,0.8,0,1.8,0.1,2.9
				c0.1,1.1,0.3,2.2,0.7,3.2c0.4,1,1,1.9,1.8,2.6c0.8,0.7,2,1.1,3.4,1.1c0.9,0,1.8-0.1,2.8-0.2c1-0.2,1.9-0.2,2.9-0.2
				c1.7,0,2.9,0.6,3.6,1.7c0.7,1.1,1.1,2.6,1.1,4.4c0,1.3-0.4,2.5-1.2,3.5c-0.8,1-1.8,1.8-3,2.4c-1.2,0.6-2.6,1.1-4.1,1.4
				C333.6,196,332.2,196.2,330.8,196.2z"/>
			<path class="st5" d="M385.4,175.7c0,2.2-0.7,4.3-2.1,6.4c-1.4,2.1-3.1,3.9-5.2,5.6c-2.1,1.6-4.3,2.9-6.7,3.9
				c-2.4,1-4.5,1.5-6.5,1.5c-3.4,0-6.4-0.8-9-2.5c-2.6-1.7-4.9-3.8-6.7-6.5c-1.8-2.6-3.1-5.5-4.1-8.7c-0.9-3.2-1.4-6.2-1.4-9.2
				c0-3.2,0.4-6.6,1.3-10.2c0.9-3.6,2.2-7,4.1-10s4.1-5.6,6.9-7.7c2.8-2,6.1-3.1,9.9-3.1c2.2,0,4.2,0.4,6.2,1.1
				c2,0.7,3.7,1.8,5.2,3.1c1.5,1.3,2.6,2.9,3.5,4.8c0.9,1.9,1.3,3.9,1.3,6.2c0,3-0.6,5.8-1.9,8.4c-1.3,2.6-3,4.9-5.1,6.8
				s-4.5,3.5-7.3,4.6c-2.7,1.2-5.6,1.8-8.4,2c0.3,1.9,1,3.2,2.2,4c1.2,0.8,2.7,1.2,4.5,1.2c1.3,0,2.5-0.3,3.7-1
				c1.2-0.6,2.4-1.4,3.5-2.2c1.1-0.8,2.3-1.5,3.4-2.2c1.1-0.6,2.2-1,3.4-1c1.3,0,2.4,0.4,3.4,1.2
				C384.9,173.3,385.4,174.4,385.4,175.7z M369.9,152.3c0-0.8-0.2-1.7-0.7-2.6c-0.4-0.9-1.1-1.3-2.1-1.3c-1.4,0-2.6,0.4-3.5,1.1
				c-1,0.7-1.8,1.7-2.4,2.8c-0.6,1.1-1.1,2.3-1.5,3.6c-0.4,1.3-0.6,2.5-0.6,3.5c0.9-0.2,2-0.4,3.2-0.8c1.2-0.3,2.4-0.7,3.5-1.3
				c1.1-0.5,2.1-1.2,2.9-2.1C369.5,154.4,369.9,153.4,369.9,152.3z"/>
			<path class="st5" d="M423.4,157c-0.9,0.1-1.7,0-2.3-0.2c-0.6-0.2-1.3-0.5-1.9-0.7c-0.6-0.3-1.1-0.5-1.7-0.7
				c-0.6-0.2-1.2-0.3-1.9-0.2c-1.3,0.1-2.4,0.4-3.4,1.1c-1,0.6-1.9,1.4-2.7,2.4c-0.8,1-1.5,2-2.1,3.2c-0.6,1.2-1,2.3-1.3,3.5
				c-0.2,0.8-0.3,1.9-0.4,3.5c-0.1,1.6-0.1,3.2-0.1,5c-0.1,1.9-0.1,3.6-0.1,5.3c0,1.7-0.1,3-0.2,3.9c-0.1,1-0.2,2.2-0.5,3.6
				c-0.3,1.4-0.7,2.7-1.2,3.9c-0.5,1.2-1.3,2.2-2.2,3.1c-0.9,0.8-2,1.2-3.4,1.2c-1.1,0-2-0.3-2.8-1c-0.8-0.6-1.5-1.5-2-2.5
				c-0.5-1.1-1-2.3-1.3-3.7c-0.4-1.4-0.6-2.8-0.8-4.3c-0.2-1.5-0.3-3.1-0.4-4.6s-0.2-3-0.2-4.4c0-1.4,0-2.6,0-3.8c0-1.1,0-2.1,0-2.8
				c-0.1-2.2-0.2-4.5-0.3-6.7c-0.2-2.3-0.2-4.5-0.2-6.7c0-1.4,0.1-3,0.2-4.7c0.1-1.7,0.5-3.3,1.1-4.8c0.6-1.5,1.4-2.8,2.5-3.8
				c1.1-1,2.7-1.5,4.6-1.5c1.1,0,2,0.4,2.8,1.1c0.8,0.7,1.4,1.6,1.9,2.6c0.5,1,0.8,2.1,1.1,3.3c0.3,1.1,0.4,2.2,0.5,3.2
				c1.5-2.5,3.3-4.5,5.2-6.1c1.9-1.6,4.4-2.4,7.5-2.5c1.5-0.1,3,0.1,4.5,0.4c1.5,0.4,2.9,0.9,4.1,1.7c1.2,0.8,2.3,1.8,3.1,3.1
				c0.8,1.3,1.2,2.8,1.3,4.5c0.1,2-0.5,3.6-1.8,4.7C426.9,156.3,425.3,156.9,423.4,157z"/>
		</g>
	</g>
</g>
</svg>
